<svg xml:space="preserve" width="482.662" height="207.186" xmlns="http://www.w3.org/2000/svg"><path d="m134.94 199.09.215-1.022h-.006l9.952-5.87 2.516-1.463-1.374 3.543c8.209-2.42 14.895-2.556 19.341-.46 0 0-.005 0-.005-.005-7.74-2.287-26.931 4.18-30.638 5.277m-30.404 46.342-8.515-6.477 6.112 13.441v.011c.97-2.061 1.788-4.416 2.411-6.975zm39.529 12.074-26.595-6.487v.029l.008-.029 51.946 22.478-42.81-5.244 22.916 16.739-24.557-9.587 3.708 7.44-17.566-12.652-.149.268 24.904 53.84-40.496-47.933-.254 26.135-14.859-34.933-.773 10.298-7.32-26.794.013.006v-.006s.988.729 2.314 1.129c.108.029.214.055.321.086.014 0 .026.01.042.01.108.024.215.048.321.067.014 0 .029.01.05.01.11.02.214.035.336.043v.012c.115.01.228.014.336.024h.07c.107.01.224.01.344 0 .008 0 .014 0 .04-.01.102 0 .201-.005.309-.027.02-.008.034-.008.057-.008.117-.014.222-.034.328-.063a4.597 4.597 0 0 0 .42-.115c2.506-.907 4.635 0 4.635 0s2.36-1.516 2.36-2.785h-.006v-.006s-3.104-.181-3.104 1.193c0 0-3.968 1.409-9.521-.648l11.711-5.036c-.008.053-.625 2.234.05 2.992.216.262.593.354 1.18.155.214-.077.369-.058.466.036.91.938-3.506 9.095-3.506 9.095s-3.966.385-7.397-3.205a10.362 10.362 0 0 1-.685-.772v.012-.012a15.07 15.07 0 0 0 3.32 3.92c1.111.933 2.504 1.77 4.161 2.243.455 1.09-.122.38.815.954.007 0 .007.01.007.01.44 2.875 2.069 10.281 7.684 16.615.376.422.764.845 1.178 1.25 0 0-1.44-2.709-1.44-4.59.043.048 1.462 2.18 3.427 4.13v.009s-.024-.032-.052-.085c-.366-.781-3.042-6.497-2.762-8.166.007-.015.012-.025.012-.04l5.413 4.96-.023-.016c-.157-.215-5.082-6.875-5.568-9.158v-.016l8.195 5.855-.007-.01c-.028-.047-1.033-1.449-1.456-2.217-.3-.552-.343-.737-.343-.794l.013-.044 4.412 1.893s-.19-.23-.498-.565l-1.643-1.669-.406-.428-2.983-3.017-.057-.069-2.271-2.307-1.457-1.484s-1.19-1.24-1.333-1.883c-.142-.632.529-1.023.529-1.023h-.008a3.28 3.28 0 0 0 1.385-1.49 3.18 3.18 0 0 0 .247-1.234c0-.868-.355-1.656-.95-2.224a3.289 3.289 0 0 0-2.309-.93c-.824 0-1.556.298-2.128.776.1-.134 1.713-2.164 4.675-.586l3.658 2.667.16.125 3.783 2.767c.893-1.055 1.736-2.324 2.5-3.763-2.25-2.136-6.083-5.841-9.91-9.892-2.282-2.409-4.558-4.956-6.5-7.362l1.365 6.414.112.529s-.005 0-.005-.01c-.016-.005-.024-.005-.034-.015 0-.006-.019-.016-.019-.016-.013-.007-.028-.007-.036-.029-.008 0-.018-.006-.018-.02-.016-.009-.039-.018-.052-.027-.008-.006-.013-.027-.036-.031-.013-.007-.035-.03-.054-.034a.129.129 0 0 0-.046-.042c-.015-.016-.027-.03-.057-.039-.021-.02-.035-.042-.057-.053-.02-.015-.043-.042-.065-.046a.18.18 0 0 0-.061-.061c-.031-.021-.053-.046-.081-.065-.021-.015-.043-.042-.061-.063-.03-.025-.067-.044-.088-.078-.036-.015-.05-.039-.086-.054-.02-.034-.057-.062-.094-.092-.02-.023-.057-.049-.078-.076-.037-.032-.078-.065-.108-.103-.029-.026-.047-.05-.085-.069a.51.51 0 0 0-.12-.123.325.325 0 0 1-.071-.07.794.794 0 0 0-.08-.069c0-.01-.007-.01-.007-.01-.04-.038-.086-.089-.127-.134-.037-.023-.065-.061-.093-.095-.05-.039-.088-.084-.13-.124-.036-.034-.072-.075-.107-.106-.028-.044-.065-.077-.084-.103-.014-.012-.034-.033-.051-.049 0-.006-.014-.016-.03-.032l-.078-.08c-.037-.042-.07-.076-.107-.119-.007-.016-.013-.026-.028-.03-.015-.015-.027-.023-.042-.039a.308.308 0 0 0-.073-.084.819.819 0 0 0-.14-.157c-.038-.053-.082-.091-.116-.144-.042-.055-.1-.112-.143-.161-.042-.054-.082-.096-.123-.15-.056-.059-.097-.121-.155-.181-.036-.048-.08-.097-.125-.155-.047-.065-.096-.122-.154-.199-.042-.038-.078-.098-.122-.146-.054-.08-.114-.148-.17-.225-.045-.057-.08-.095-.108-.147l-.213-.275c-.024-.036-.06-.079-.079-.113-.1-.138-.207-.278-.302-.423l-.012-.015c-.095-.14-.195-.277-.286-.418a1.595 1.595 0 0 0-.083-.133c-.066-.106-.143-.214-.215-.327-.039-.053-.065-.106-.108-.16-.065-.107-.13-.203-.2-.31l-.105-.181c-.058-.108-.13-.217-.2-.323-.03-.065-.072-.129-.106-.197-.065-.107-.123-.22-.196-.328-.036-.057-.077-.133-.114-.198-.065-.126-.13-.234-.194-.348-.03-.065-.07-.137-.104-.21a39.593 39.593 0 0 1-.895-1.749v-.01l-1.506-.253c.302.777.6 1.48.923 2.147l-2.457-3.458 2.457.24c-2.1-4.827-3.642-11.143-3.642-20.14l2 1.264c1.761-10.04 10.04-14.455 10.04-14.455l-.012.063c4.56-2.985 10.112-5.072 16.23-5.9.848-.108 1.537-.17 1.691-.186.006 0 .006 0 .006.004.112-.013.21-.032.316-.032a41.535 41.535 0 0 1 9.61.278c-.008-.116-.017-.234-.017-.353 0-1.989 1.106-3.625 2.515-3.76-2.893-4.92-5.234-11.455-5.243-11.486-.11-.3-.342-.856-.575-1.023-.713-.16-.77-.196-1.557-.441l.01.01c-.265.258-2.549.686-4.877-.188.006-.01.006-.01.02-.022-1.318-.578-2.598-1.633-3.488-3.381.946.763 2.71 2.005 4.146 1.834-1.7-.97-4.64-2.82-4.977-5.483 0 0 10.207 7.16 15.239 5.839 0 0-.732-.832 1-3.926l.79 2.877c.908 2.792-2.587 3.203-4.057 3.262.007.021.007.032.007.034 0 0 .162.448.447 1.188.867 2.236 2.884 7.177 5.092 10.704.04.076.069.154.09.227l-.41.57c.002 0 .297.32.455.557.293.463.699 1.249.706 2.287 0 .815-.198 1.844-.781 3.12l1.308.606c.07-.165.143-.321.211-.47l.055-.152c.04-.105.083-.213.119-.32.022-.048.04-.107.06-.16.035-.118.068-.224.107-.33.006-.034.029-.078.036-.116l7.47 2.256-1.657 1.364h-.01l-.074.073-.037.03-28.25 25.728c.007 0 .014-.014.014-.014l-.007.014c7.853-3.82 17.015-8.261 32.555-15.462 15.31-7.056 25.004-11.167 30.006-13.216.041-.028.087-.045.122-.06h.007c.727-.298 1.35-.549 1.874-.762 1.073-.42 2.075-.808 2.131-.832.083.047.184.074.27.119l-57.115 39.172zm-54.491-4.364a1.76 1.76 0 0 0-.727-.142c-.787 0-1.527.478-1.848 1.26-.029.063-.066.14-.079.22l-.587-.195c.494-1.438 1.979-2.226 3.32-1.761.337.12.638.3.871.53.737.692 1.037 1.82.67 2.89l-1.346-.46c.084-.198.142-.411.142-.64 0-.2-.036-.38-.114-.551l.614-.376a2.184 2.184 0 0 0-.394-.454 1.633 1.633 0 0 0-.522-.321m8.566-67.295c2.248 2.418 4.89 5.148 6.468 6.434a32.05 32.05 0 0 0-1.905.238c-1.645-1.498-3.742-3.688-5.62-5.695-2.383-2.57-4.344-4.815-4.344-4.826-.031-.019-.043-.058-.073-.086-1.557-.428-4.197-1.155-5.954-1.633-2.604-.722-4.94-.544-4.94-2.248 0 0-2.696-1.446-2.065-3.6 0 0 5.407 4.32 10.033 5.051 0 0-2.825-1.84-2.57-4.33 0 0 3.81 5.7 8.259 2.242 0 0-1.984 2.694-1.157 4.176.71.806 2.183 2.462 3.868 4.277" style="fill:#db0d15;fill-opacity:1;fill-rule:nonzero;stroke:none;stroke-width:.801562" transform="matrix(1.33333 0 0 -1.33333 -95.777 432.402)"/><path d="m86.328 254.285.593.195c.013-.08.05-.157.08-.22a2.003 2.003 0 0 1 1.848-1.26c.25 0 .493.038.726.141.394.16.708.444.915.777l-.613.367c.078.167.113.359.113.558 0 .229-.058.443-.141.642l1.345.458c.488-1.431-.199-2.962-1.546-3.425-1.34-.458-2.828.32-3.32 1.767m15.204-.667c-.763 1.439-1.606 2.708-2.499 3.762l-7.602-5.568c-3.068-1.62-4.687.599-4.687.599a3.284 3.284 0 0 1 2.14-.78c1.805 0 3.255 1.423 3.26 3.155 0 .438-.09.856-.254 1.225a3.203 3.203 0 0 1-1.384 1.495l.014.003s-.671.392-.53 1.024c.143.642 1.334 1.882 1.334 1.882l-.007-.004 3.736 3.796.055.07 3.39 3.444 1.642 1.67c.308.334.492.554.492.554l-4.419-1.884s-.084.048.344.838c.429.784 1.463 2.227 1.463 2.227l-8.202-5.854c.473 2.298 5.598 9.178 5.598 9.178l-5.412-4.952c-.363 1.726 2.8 8.285 2.8 8.285-1.992-1.975-3.426-4.141-3.426-4.141 0 1.893 1.434 4.6 1.434 4.6-6.572-6.575-8.398-14.803-8.856-17.864-.952-.595-.367.13-.822-.964-4.412-1.247-6.917-5.182-7.487-6.162 3.58 4.418 8.088 3.977 8.088 3.977s5.379-9.944 3.04-9.141c-2.36.818-1.23-3.138-1.23-3.138l-4.403 1.9c.727-1.439 2.154-4.823 1.334-8.345-.906-1.375-1.804-3.055-2.6-5.123l1.507.252c.294.63.587 1.205.88 1.755.04.071.087.14.118.209a4.1 4.1 0 0 0 .195.343l.114.21c.064.107.119.213.187.32.043.074.086.138.115.203.07.107.126.216.2.315.034.068.068.125.104.178.065.107.137.214.201.318.03.057.061.111.107.164.062.107.137.214.215.32.03.051.05.098.084.139.091.141.19.279.286.412 0 .006.012.016.012.021.096.146.195.278.29.414.03.033.061.078.09.117.071.098.136.183.207.28.036.052.07.09.115.138.05.077.106.155.164.235.05.048.086.095.12.146.054.069.108.134.161.199.04.047.09.095.125.148.059.066.1.123.15.183.047.046.081.097.123.144.05.06.097.117.149.167.034.048.078.092.115.138.047.06.098.106.133.16.044.038.08.092.123.13.045.048.085.092.135.14.037.051.071.078.107.122.052.048.09.09.136.143.03.028.07.07.107.115.034.04.08.084.13.123.028.03.056.062.093.095.04.046.087.096.127.134.037.023.056.058.086.076.071.073.127.132.192.196.037.019.057.044.085.069.03.037.07.072.108.102.02.027.06.054.078.077.036.03.072.057.094.092.035.016.049.04.086.054.02.034.057.053.087.078.02.021.04.048.061.062.029.02.05.045.081.065.02.008.043.033.061.062.023.003.046.031.065.046.023.012.036.032.058.053.03.008.041.023.057.039.021.015.034.023.045.041.02.006.041.027.055.035.022.004.028.025.036.03.013.01.036.02.051.028 0 .015.011.02.02.02.007.021.023.021.035.03 0 0 .018.01.018.015.011.01.019.01.035.015 0 .01.005.01.005.01l-.113-.53-1.365-6.412c5.176 6.413 12.817 13.851 16.41 17.253m.97-61.064c1.349-.214 2.579-.327 2.579-.327l.062.714s-1.203.106-2.525.32zm17.072 3.1c.582-1.278.78-2.306.78-3.121-.007-1.038-.412-1.825-.705-2.288a5.285 5.285 0 0 0-.457-.558l.85-1.164c.09.059 1.748 1.312 1.748 4.01 0 1.05-.25 2.292-.913 3.725zm46.053-1.825s-19.129 7.177-66.716 30.333l28.36-25.832h.012c2.541 1.055 4.329 1.804 7.865-.263l-.208 1.023c3.7-1.097 22.964-7.595 30.687-5.261m-63.493 58.568-6.112-13.442 8.516 6.478c-.617 2.557-1.444 4.904-2.404 6.964m-20.778-1.762c0-1.375 3.103-1.193 3.103-1.193 0 1.263-2.355 2.784-2.355 2.784s-2.129-.9-4.646 0c-1.008.364-2.064.246-2.962-.03-1.193-.794-2.663-2.219-2.663-2.219 5.554 2.067 9.523.658 9.523.658" style="fill:#000;fill-opacity:1;fill-rule:nonzero;stroke:none;stroke-width:.801562" transform="matrix(1.33333 0 0 -1.33333 -95.777 432.402)"/><path d="m299.02 240.404.082.074 2.906 2.966.427.45h-12.396V222.48h9.052l.084.071 2.833 2.968.42.438h-8.716v6.648h2.678l.07.08 2.947 2.957.44.449h-6.136v4.313zm-22.565 1.205-.113-.083v-11.408c0-1.725-.183-2.936-.539-3.61-.317-.632-.877-.928-1.713-.928-.612 0-1.275.233-1.99.713l-.233.153-.133-.234-1.56-2.691-.121-.225.213-.133a7.389 7.389 0 0 1 3.824-1.07c1.815 0 3.293.662 4.393 1.945.564.652.96 1.46 1.204 2.398.224.814.347 2.019.347 3.671v14.021l-.419-.297zm45.162 2.202-7.686-7.88v8.197l-.41-.297-3.15-2.213-.113-.08v-19.302l.418.284 3.151 2.222.104.082v6.455l.373.369 7.342-9.076.143-.184.206.132 2.7 1.827.235.162-.183.225-7.818 9.423 9.275 9.287.44.45H321.7zm45.633-9.739v6.64h1.12c2.907 0 4.355-1.073 4.355-3.212 0-2.285-1.489-3.428-4.478-3.428zm4.097-2.6c1.264.358 2.314 1.041 3.12 2.051.89 1.102 1.326 2.448 1.326 3.977 0 1.957-.713 3.57-2.121 4.77-1.278 1.07-3.334 1.624-6.15 1.624h-3.956v-21.658l.409.284 3.161 2.222.114.082v6.2h.17l5.884-8.444.155-.213.213.153 2.528 1.827.202.152-.14.212zm45.803-3.64a7.025 7.025 0 0 0-2.456-1.436c-.908-.297-2.06-.44-3.446-.44h-1.163v14.448h1.163c2.61 0 4.598-.621 5.924-1.835 1.467-1.377 2.21-3.18 2.21-5.382 0-2.193-.743-3.986-2.232-5.356m2.622 13.298a9.803 9.803 0 0 1-3.661 2.123c-1.245.426-2.936.642-5.057.642h-4.64V222.48H411c2.134 0 3.817.193 4.997.591 1.256.398 2.478 1.11 3.632 2.12 2.292 2.031 3.457 4.71 3.457 7.996 0 3.252-1.113 5.934-3.315 7.942m-160.51-13.358c-1.457-1.458-3.262-2.191-5.374-2.191-1.927 0-3.67.724-5.149 2.162-1.499 1.426-2.252 3.272-2.252 5.504 0 2.11.733 3.917 2.17 5.355 1.44 1.46 3.234 2.203 5.325 2.203 2.1 0 3.884-.744 5.303-2.203 1.437-1.449 2.159-3.273 2.159-5.414 0-2.11-.734-3.937-2.181-5.416m-5.24 16.51c-3.07 0-5.742-1.093-7.923-3.244-2.202-2.151-3.316-4.762-3.316-7.758 0-3.406 1.223-6.21 3.632-8.321 2.181-1.898 4.688-2.866 7.442-2.866 3.102 0 5.793 1.092 7.985 3.232 2.192 2.132 3.303 4.762 3.303 7.83 0 3.041-1.102 5.693-3.282 7.854-2.17 2.173-4.804 3.274-7.841 3.274m77.628-3.878h4.801v-18.168l.41.284 3.15 2.222.113.082v15.58h4.793v3.49H331.65zm62.802 0 .07.074 2.906 2.966.44.45h-12.412V222.48h9.066l.074.071 2.845 2.968.416.438h-8.73v6.648h2.693l.072.08 2.948 2.957.435.449h-6.147v4.313zm-241.317.4c1.353 0 2.69-.388 3.996-1.153l.226-.132.12.224 1.532 2.64.131.224-.223.134c-1.786 1.028-3.664 1.549-5.56 1.549-3.508 0-6.402-1.314-8.605-3.914-1.794-2.132-2.703-4.58-2.703-7.293 0-3.016 1.092-5.65 3.223-7.788 2.162-2.122 4.792-3.203 7.842-3.203 2.017 0 3.967.532 5.803 1.57l.13.082v.214l-.03.06-1.54 2.663-.132.233-.232-.153a8.336 8.336 0 0 0-1.236-.662c-.746-.348-1.662-.52-2.734-.52-2.058 0-3.822.734-5.25 2.184-1.42 1.445-2.142 3.251-2.142 5.363 0 2.14.722 3.976 2.142 5.443 1.418 1.491 3.181 2.235 5.242 2.235m24.094-12.973a6.844 6.844 0 0 0-2.46-1.435c-.894-.297-2.056-.44-3.435-.44h-1.16v14.448h1.16c2.603 0 4.599-.621 5.913-1.835 1.481-1.377 2.215-3.18 2.215-5.382 0-2.193-.744-3.986-2.233-5.356m-1.03 15.42c-1.243.427-2.946.643-5.058.643h-4.638V222.48h4.588c2.13 0 3.802.193 4.986.591 1.255.398 2.486 1.111 3.639 2.12 2.285 2.031 3.457 4.71 3.457 7.996 0 3.252-1.123 5.934-3.324 7.942-1.09.99-2.315 1.703-3.65 2.123m50.922-9.18v6.641h1.133c2.895 0 4.353-1.074 4.353-3.213 0-2.285-1.498-3.428-4.476-3.428zm4.1-2.6c1.265.358 2.315 1.041 3.12 2.051.887 1.102 1.327 2.448 1.327 3.977 0 1.957-.715 3.57-2.123 4.77-1.263 1.07-3.334 1.624-6.149 1.624h-3.946v-21.658l.398.284 3.162 2.222.111.082v6.2h.174l5.894-8.444.143-.213.213.153 2.53 1.827.213.152-.152.212zm-23.574 2.6h-1.01v6.64h1.132c2.895 0 4.354-1.073 4.354-3.212 0-2.285-1.5-3.428-4.476-3.428m3.19 9.445c-.907.243-2.263.377-4.027.377h-3.834v-21.658l.406.284 3.151 2.222.114.082v6.128h1.203c2.223 0 4.027.592 5.352 1.746 1.337 1.172 2.01 2.762 2.01 4.741 0 1.855-.633 3.405-1.876 4.63a5.629 5.629 0 0 1-2.498 1.448" style="fill:#000;fill-opacity:1;fill-rule:nonzero;stroke:none;stroke-width:.801562" transform="matrix(1.33333 0 0 -1.33333 -95.777 432.402)"/><path d="M430.403 242.152h-1.148v-1.517h1.148c.37 0 .775.299.775.74a.78.78 0 0 1-.775.777m.707-3.759-1.114 1.694h-.741v-1.694h-.6v4.29h1.748c.724 0 1.394-.51 1.394-1.308 0-.951-.846-1.27-1.092-1.27l1.148-1.712zm-1.025 5.334a3.154 3.154 0 0 1-3.178-3.181 3.174 3.174 0 0 1 3.178-3.178 3.174 3.174 0 0 1 3.178 3.178 3.154 3.154 0 0 1-3.178 3.181m0-6.925a3.748 3.748 0 0 0-3.743 3.744 3.734 3.734 0 0 0 3.743 3.744 3.724 3.724 0 0 0 3.744-3.744 3.737 3.737 0 0 0-3.744-3.744" style="fill:#000;fill-opacity:1;fill-rule:nonzero;stroke:none;stroke-width:.801562" transform="matrix(1.33333 0 0 -1.33333 -95.777 432.402)"/></svg>