<?xml version="1.0" encoding="UTF-8" standalone="no"?>
<svg
   xmlns:dc="http://purl.org/dc/elements/1.1/"
   xmlns:cc="http://creativecommons.org/ns#"
   xmlns:rdf="http://www.w3.org/1999/02/22-rdf-syntax-ns#"
   xmlns:svg="http://www.w3.org/2000/svg"
   xmlns="http://www.w3.org/2000/svg"
   version="1.1"
   id="svg2"
   xml:space="preserve"
   width="400"
   height="237.166"
   viewBox="0 0 400 237.166"><defs
     id="defs6" /><g
     id="g3128"
     transform="matrix(9.2981968,0,0,9.2981968,-501.7274,-5186.5468)"><path
       d="m 62.228,36.004 c -2.141,0.106 -2.005,2.264 -2.005,2.264 v 3.098 c -0.019,-10e-4 -0.031,-0.002 -0.031,-0.002 l 0.031,0.016 v -0.014 c 0.126,0.008 0.645,0.038 1.549,-0.002 1.047,-0.046 1.125,-0.152 1.125,-0.152 1.532,-0.227 1.774,-1.807 1.774,-1.807 V 38.707 C 64.809,36.11 62.243,35.99 62.228,36.004 m -3.219,6.483 h -3.918 c 0,0 0.517,3.264 -3.962,3.264 0.016,-0.016 -1.671,-0.016 -1.671,-0.016 0,0 -0.12,1.823 3.265,1.823 h 8.016 c 0,0 3.037,0.228 3.675,-1.823 0.015,-0.013 -1.776,0 -1.776,0 0,0 -3.569,0.109 -3.629,-3.248 m -9.641,2.126 h 2.05 c 0,0 2.505,0.227 2.429,-2.095 h -1.26 c 0,0 -3.266,-0.182 -3.219,2.095 m 5.026,-8.684 c 0,0 0.834,0.789 0.681,3.642 0,-0.014 -6.862,0 -6.862,0 V 38.57 c 0,0 -0.028,-1.792 1.094,-2.641 0,-0.015 -3.917,0 -3.917,0 0,0 -1.154,0 -1.625,0.273 0,0 -1.168,0.302 -1.184,1.928 -0.015,1.626 0,3.978 0,3.978 0,0 0.075,1.291 0.395,1.64 0.151,0.183 0.379,0.654 1.26,0.758 0,0 0.273,0.107 1.579,0.107 h 1.459 0.802 c 0,0 -0.013,-1.792 1.14,-2.491 0.015,0 1.107,-0.713 3.476,-0.713 h 6.271 v -2.884 c 0,0 -0.076,-1.381 0.73,-2.596 z m -2.217,0.091 c 0,0 -2.643,0.106 -2.643,2.46 h 4.297 c 0,0 0.213,-2.49 -1.654,-2.46 m 20.541,1.882 c 0,0 -1.229,0.016 -1.214,0 0.017,-2.202 -2.596,-1.951 -2.596,-1.951 h -3.802 c 1.228,1.297 0.773,3.736 0.773,3.758 -0.115,1.89 -2.642,2.505 -2.642,2.483 -1.275,0.295 -3.005,0.318 -3.005,0.318 0.044,2.231 2.504,2.097 2.504,2.097 0,0 3.895,0.044 6.422,0 2.529,-0.047 2.369,-1.961 2.369,-1.961 0,0 1.207,-0.022 1.207,0 0.024,3.098 -3.598,3.076 -3.598,3.076 0,0 -3.416,-0.024 -3.416,0 -0.479,2.938 -4.305,2.915 -4.305,2.915 h -9.429 c -3.422,-0.046 -3.863,-2.902 -3.863,-2.902 h -2.885 c -4.084,0.032 -3.903,-3.385 -3.903,-3.385 0,0 0.017,-0.591 0,-4.205 -0.015,-3.614 4.139,-3.34 4.139,-3.34 h 23.268 c 4.462,0 3.976,3.097 3.976,3.097"
       style="fill:#383c3e;fill-opacity:1;fill-rule:nonzero;stroke:none"
       id="path86"
       transform="matrix(1.333333,0,0,-1.333333,0,623.62267)" /><path
       d="m 61.816,36.369 c -2.14,0.106 -2.002,2.262 -2.002,2.262 v 3.099 c -0.02,-10e-4 -0.03,-0.002 -0.03,-0.002 l 0.03,0.015 V 41.73 c 0.125,0.009 0.643,0.039 1.547,-0.002 1.049,-0.045 1.125,-0.152 1.125,-0.152 1.534,-0.227 1.777,-1.805 1.777,-1.805 v -0.7 c 0.136,-2.596 -2.43,-2.718 -2.447,-2.702 m -3.217,6.484 h -3.916 c 0,0 0.514,3.262 -3.964,3.262 0.016,-0.013 -1.67,-0.013 -1.67,-0.013 0,0 -0.122,1.822 3.265,1.822 h 8.015 c 0,0 3.036,0.226 3.676,-1.822 0.015,-0.017 -1.777,0 -1.777,0 0,0 -3.568,0.104 -3.629,-3.249 m -9.641,2.124 h 2.048 c 0,0 2.509,0.228 2.431,-2.094 h -1.26 c 0,0 -3.265,-0.184 -3.219,2.094 m 5.025,-8.684 c 0,0 0.835,0.789 0.685,3.644 0,-0.015 -6.863,0 -6.863,0 v -1.002 c 0,0 -0.031,-1.791 1.093,-2.642 0,-0.016 -3.918,0 -3.918,0 0,0 -1.154,0 -1.625,0.274 0,0 -1.168,0.302 -1.184,1.927 -0.015,1.625 0,3.979 0,3.979 0,0 0.076,1.29 0.395,1.638 0.151,0.183 0.38,0.653 1.26,0.761 0,0 0.274,0.105 1.579,0.105 h 1.458 0.804 c 0,0 -0.014,-1.791 1.14,-2.49 0.014,0 1.107,-0.712 3.476,-0.712 h 6.27 V 38.89 c 0,0 -0.076,-1.382 0.729,-2.597 z m -2.216,0.091 c 0,0 -2.642,0.106 -2.642,2.459 h 4.296 c 0,0 0.213,-2.49 -1.654,-2.459 m 20.542,1.884 c 0,0 -1.229,0.013 -1.215,0 0.015,-2.202 -2.596,-1.952 -2.596,-1.952 h -3.803 c 1.231,1.298 0.775,3.735 0.775,3.757 -0.114,1.89 -2.643,2.505 -2.643,2.483 -1.275,0.297 -3.006,0.318 -3.006,0.318 0.046,2.233 2.506,2.095 2.506,2.095 0,0 3.893,0.047 6.422,0 2.526,-0.044 2.368,-1.957 2.368,-1.957 0,0 1.206,-0.025 1.206,0 0.024,3.097 -3.597,3.073 -3.597,3.073 0,0 -3.415,-0.022 -3.415,0 C 64.831,49.025 61.006,49 61.006,49 h -9.428 c -3.425,-0.044 -3.864,-2.898 -3.864,-2.898 h -2.885 c -4.085,0.029 -3.902,-3.387 -3.902,-3.387 0,0 0.014,-0.593 0,-4.206 -0.015,-3.612 4.137,-3.34 4.137,-3.34 h 23.268 c 4.462,0 3.977,3.099 3.977,3.099"
       style="fill:#ffffff;fill-opacity:1;fill-rule:nonzero;stroke:none"
       id="path88"
       transform="matrix(1.333333,0,0,-1.333333,0,623.62267)" /><path
       d="m 61.361,36.734 c -2.14,0.105 -2.003,2.261 -2.003,2.261 v 3.1 c -0.02,-10e-4 -0.032,-0.002 -0.032,-0.002 l 0.032,0.015 v -0.013 c 0.125,0.008 0.645,0.038 1.548,-0.002 1.047,-0.045 1.123,-0.152 1.123,-0.152 1.536,-0.228 1.777,-1.806 1.777,-1.806 v -0.698 c 0.137,-2.598 -2.429,-2.719 -2.445,-2.703 m -3.217,6.483 h -3.916 c 0,0 0.514,3.265 -3.963,3.265 0.014,-0.017 -1.671,-0.017 -1.671,-0.017 0,0 -0.121,1.822 3.265,1.822 h 8.014 c 0,0 3.038,0.227 3.676,-1.822 0.016,-0.016 -1.777,0 -1.777,0 0,0 -3.567,0.107 -3.628,-3.248 m -9.642,2.125 h 2.051 c 0,0 2.504,0.228 2.429,-2.096 h -1.26 c 0,0 -3.266,-0.181 -3.22,2.096 m 5.024,-8.684 c 0,0 0.837,0.788 0.686,3.643 0,-0.016 -6.863,0 -6.863,0 V 39.3 c 0,0 -0.032,-1.792 1.092,-2.642 0,-0.015 -3.916,0 -3.916,0 0,0 -1.154,0 -1.624,0.272 0,0 -1.171,0.304 -1.185,1.929 -0.015,1.625 0,3.977 0,3.977 0,0 0.076,1.291 0.394,1.642 0.153,0.18 0.379,0.651 1.261,0.757 0,0 0.274,0.107 1.579,0.107 h 1.458 0.803 c 0,0 -0.015,-1.791 1.14,-2.489 0.014,0 1.107,-0.715 3.477,-0.715 h 6.271 v -2.885 c 0,0 -0.077,-1.383 0.728,-2.595 z m -2.214,0.091 c 0,0 -2.643,0.105 -2.643,2.459 h 4.299 c 0,0 0.212,-2.49 -1.656,-2.459 m 20.542,1.882 c 0,0 -1.231,0.015 -1.215,0 0.014,-2.202 -2.595,-1.95 -2.595,-1.95 h -3.805 c 1.231,1.298 0.775,3.733 0.775,3.757 -0.114,1.89 -2.642,2.506 -2.642,2.482 -1.275,0.297 -3.007,0.319 -3.007,0.319 0.046,2.232 2.507,2.095 2.507,2.095 0,0 3.892,0.046 6.42,0 2.53,-0.046 2.369,-1.958 2.369,-1.958 0,0 1.208,-0.023 1.208,0 0.023,3.097 -3.597,3.073 -3.597,3.073 0,0 -3.418,-0.022 -3.418,0 -0.479,2.938 -4.303,2.917 -4.303,2.917 h -9.43 c -3.423,-0.047 -3.864,-2.901 -3.864,-2.901 h -2.884 c -4.086,0.031 -3.902,-3.385 -3.902,-3.385 0,0 0.015,-0.593 0,-4.207 -0.015,-3.612 4.137,-3.34 4.137,-3.34 h 23.267 c 4.465,0 3.979,3.098 3.979,3.098"
       style="fill:#3584a3;fill-opacity:1;fill-rule:nonzero;stroke:none"
       id="path90"
       transform="matrix(1.333333,0,0,-1.333333,0,623.62267)" /><path
       d="m 42.962,30.873 c 0,-0.25 -0.038,-0.637 -0.653,-0.637 h -0.73 c -0.615,0 -0.653,0.387 -0.653,0.637 v 2.291 c 0,0.25 0.038,0.636 0.653,0.636 h 0.73 c 0.615,0 0.653,-0.386 0.653,-0.636 V 32.66 h -0.88 v 0.631 c 0,0.062 -0.057,0.117 -0.139,0.117 -0.049,0 -0.138,-0.026 -0.138,-0.117 v -2.546 c 0,-0.091 0.089,-0.117 0.138,-0.117 0.082,0 0.139,0.057 0.139,0.117 v 0.845 h -0.133 v 0.393 h 1.013 z"
       style="fill:#000000;fill-opacity:1;fill-rule:nonzero;stroke:none"
       id="path92"
       transform="matrix(1.333333,0,0,-1.333333,0,623.62267)" /><path
       d="m 45.254,31.575 -0.149,1.788 H 45.053 L 44.902,31.575 Z M 44.389,33.8 h 1.381 l 0.458,-3.564 h -0.861 l -0.081,0.948 H 44.871 L 44.79,30.236 h -0.859 z"
       style="fill:#000000;fill-opacity:1;fill-rule:nonzero;stroke:none"
       id="path94"
       transform="matrix(1.333333,0,0,-1.333333,0,623.62267)" /><path
       d="m 49.483,33.8 h 1.144 v -3.564 h -0.881 v 2.236 h -0.031 l -0.451,-2.236 h -0.705 l -0.451,2.236 H 48.075 V 30.236 H 47.196 V 33.8 h 1.145 l 0.57,-2.504 z"
       style="fill:#000000;fill-opacity:1;fill-rule:nonzero;stroke:none"
       id="path96"
       transform="matrix(1.333333,0,0,-1.333333,0,623.62267)" /><path
       d="m 51.707,33.8 h 1.785 v -0.392 h -0.905 v -1.105 h 0.905 v -0.392 h -0.905 v -1.283 h 0.941 v -0.392 h -1.821 z"
       style="fill:#000000;fill-opacity:1;fill-rule:nonzero;stroke:none"
       id="path98"
       transform="matrix(1.333333,0,0,-1.333333,0,623.62267)" /><path
       d="M 58.122,30.236 H 56.967 L 56.412,33.8 h 0.906 l 0.225,-2.606 h 0.032 L 57.84,33.8 h 1.072 l 0.266,-2.606 h 0.031 L 59.436,33.8 H 60.34 L 59.787,30.236 H 58.63 l -0.231,2.424 h -0.044 z"
       style="fill:#000000;fill-opacity:1;fill-rule:nonzero;stroke:none"
       id="path100"
       transform="matrix(1.333333,0,0,-1.333333,0,623.62267)" /><path
       d="m 62.464,33.291 c 0,0.062 -0.057,0.117 -0.138,0.117 -0.051,0 -0.138,-0.026 -0.138,-0.117 v -2.546 c 0,-0.091 0.087,-0.117 0.138,-0.117 0.081,0 0.138,0.057 0.138,0.117 z m -1.157,-0.127 c 0,0.25 0.038,0.636 0.654,0.636 h 0.73 c 0.615,0 0.651,-0.386 0.651,-0.636 v -2.291 c 0,-0.25 -0.036,-0.637 -0.651,-0.637 h -0.73 c -0.616,0 -0.654,0.387 -0.654,0.637 z"
       style="fill:#000000;fill-opacity:1;fill-rule:nonzero;stroke:none"
       id="path102"
       transform="matrix(1.333333,0,0,-1.333333,0,623.62267)" /><path
       d="m 65.417,31.946 c 0.093,0 0.163,0.068 0.163,0.18 v 1.105 c 0,0.113 -0.07,0.177 -0.163,0.177 h -0.114 v -1.462 z m 0.25,-1.71 -0.3,1.319 H 65.303 V 30.236 H 64.424 V 33.8 h 1.382 c 0.617,0 0.653,-0.386 0.653,-0.636 V 32.06 c 0,-0.097 -0.006,-0.331 -0.32,-0.433 l 0.433,-1.391 z"
       style="fill:#000000;fill-opacity:1;fill-rule:nonzero;stroke:none"
       id="path104"
       transform="matrix(1.333333,0,0,-1.333333,0,623.62267)" /><path
       d="m 67.539,33.8 h 0.881 v -3.172 h 0.791 v -0.392 h -1.672 z"
       style="fill:#000000;fill-opacity:1;fill-rule:nonzero;stroke:none"
       id="path106"
       transform="matrix(1.333333,0,0,-1.333333,0,623.62267)" /><path
       d="m 71.171,30.628 c 0.095,0 0.163,0.066 0.163,0.179 v 2.424 c 0,0.113 -0.068,0.177 -0.163,0.177 h -0.112 v -2.78 z M 70.18,33.8 h 1.381 c 0.615,0 0.654,-0.386 0.654,-0.636 v -2.291 c 0,-0.25 -0.039,-0.637 -0.654,-0.637 H 70.18 Z"
       style="fill:#000000;fill-opacity:1;fill-rule:nonzero;stroke:none"
       id="path108"
       transform="matrix(1.333333,0,0,-1.333333,0,623.62267)" /></g><metadata
     id="metadata20"><rdf:RDF><cc:Work
         rdf:about=""><dc:title></dc:title></cc:Work></rdf:RDF></metadata></svg>