<?xml version="1.0"?>
<svg width="162" height="176" xmlns="http://www.w3.org/2000/svg" xmlns:svg="http://www.w3.org/2000/svg">
 <g class="layer">
  <title>Layer 1</title>
  <path d="m79.62,163.32l-5.82,-4.83l-0.55,0l0,4.83l-2.09,0l0,-10.67l2.09,0l0,4.35l0.57,0l5.71,-4.37l2.69,0l-6.55,5l6.89,5.7l-2.94,-0.01zm8.56,0c-3.56,0 -5.47,-1.89 -5.47,-5.32s1.91,-5.35 5.47,-5.35l2.16,0c3.58,0 5.49,1.9 5.49,5.35s-1.91,5.32 -5.49,5.32l-2.16,0zm1.81,-1.56c2.8,0 3.69,-1.61 3.69,-3.76s-0.89,-3.77 -3.69,-3.77l-1.58,0c-2.67,0 -3.55,1.6 -3.55,3.77s0.88,3.76 3.55,3.76l1.58,0zm7,1.56l0,-1.72l4.72,0c1.28,0 2,-0.73 2,-1.72l0,-7.23l2.12,0l0,7.48c0,2.07 -1.45,3.19 -4,3.19l-4.84,0zm11,0l0,-10.67l2.12,0l0,10.67l-2.12,0zm17.33,0l0,-7.32a1.76,1.76 0 0 0 -2,-1.7l-2.47,0l0,9l-2.14,0l0,-9l-4.4,0l0,9l-2.09,0l0,-10.65l11.21,0c2.5,0 3.94,1.14 3.94,3.21l0,7.46l-2.05,0zm8,0c-3,0 -4.11,-1 -4.11,-3.14s1.1,-3.26 4.11,-3.26l5,0c-0.07,-1.71 -0.78,-2.62 -2.72,-2.62l-6.15,0l0,-1.65l6.43,0c2.94,0 4.57,1.49 4.57,4.65l0,6l-7.13,0.02zm5,-4.83l-5,0c-1.44,0 -2,0.28 -2,1.56s0.55,1.63 2,1.63l5,0l0,-3.19z" id="svg_1"/>
  <path d="m51.49,173.11l0,2.89l-1.73,0l0,-8.72l5.71,0c2.46,0 3.38,0.92 3.38,2.9s-0.92,2.89 -3.38,2.89l-3.98,0.04zm0,-4.44l0,3.1l4,0c1.19,0 1.63,-0.38 1.63,-1.55s-0.44,-1.55 -1.63,-1.55l-4,0zm16.65,7.33l-2.31,-2.94l-3.8,0l0,2.94l-1.7,0l0,-8.72l6.16,0c2.38,0 3.28,0.92 3.28,2.88a2.45,2.45 0 0 1 -2.06,2.77l2.51,3.07l-2.08,0zm-6.11,-7.37l0,3.08l4.39,0c1.06,0 1.61,-0.34 1.61,-1.53s-0.44,-1.55 -1.61,-1.55l-4.39,0zm13.58,7.37c-2.9,0 -4.47,-1.55 -4.47,-4.35s1.57,-4.37 4.47,-4.37l1.77,0c2.92,0 4.49,1.55 4.49,4.37s-1.57,4.35 -4.49,4.35l-1.77,0zm1.49,-1.28c2.29,0 3,-1.31 3,-3.07s-0.72,-3.08 -3,-3.08l-1.29,0c-2.18,0 -2.91,1.31 -2.91,3.08s0.73,3.07 2.91,3.07l1.29,0zm6.24,1.28l0,-8.72l6.22,0c2.4,0 3.72,1.41 3.72,4.37s-1.32,4.35 -3.72,4.35l-6.22,0zm6,-1.34c1.68,0 2.21,-1 2.21,-3s-0.53,-3 -2.21,-3l-4.27,0l0,6l4.27,0zm8.65,1.34c-2,0 -3.21,-0.91 -3.21,-2.61l0,-6.11l1.74,0l0,6c0,0.84 0.54,1.42 1.64,1.42l4,0l0,-7.38l1.74,0l0,8.68l-5.91,0zm11.13,0c-2.38,0 -3.7,-1.39 -3.7,-4.35s1.32,-4.37 3.7,-4.37l5,0l0,1.35l-4.75,0c-1.66,0 -2.21,1 -2.21,3s0.55,3 2.21,3l4.75,0l0,1.37l-5,0zm10.24,0l0,-7.37l-4,0l0,-1.35l9.68,0l0,1.35l-4,0l0,7.37l-1.68,0zm7,0l0,-8.72l1.73,0l0,8.72l-1.73,0zm7.68,0c-2.91,0 -4.47,-1.55 -4.47,-4.35s1.56,-4.37 4.47,-4.37l1.77,0c2.92,0 4.48,1.55 4.48,4.37s-1.58,4.35 -4.5,4.35l-1.75,0zm1.48,-1.28c2.29,0 3,-1.31 3,-3.07s-0.72,-3.08 -3,-3.08l-1.31,0c-2.18,0 -2.91,1.31 -2.91,3.08s0.73,3.07 2.91,3.07l1.31,0zm13.82,1.28l0,-6c0,-0.84 -0.63,-1.39 -1.64,-1.39l-4.22,0l0,7.39l-1.77,0l0,-8.72l6.09,0c2,0 3.23,0.93 3.23,2.63l0,6.09l-1.69,0zm3.32,0l0,-1.3l6.13,0c0.9,0 1.3,-0.4 1.3,-1.21s-0.39,-1.15 -1.38,-1.15l-3.31,0c-2.07,0 -2.94,-0.87 -2.94,-2.54s0.89,-2.48 3.05,-2.48l6,0l0,1.35l-6,0c-0.9,0 -1.31,0.32 -1.31,1.16s0.41,1.16 1.36,1.16l3.3,0c2.11,0 3,0.88 3,2.57s-0.88,2.48 -3.23,2.48l-5.97,-0.04z" id="svg_2"/>
  <path d="m133.05,69.31a41,41 0 0 0 0.61,-9.14l12.59,-5.1c-5.12,-26.74 -23.54,-47.87 -54.38,-53.44c-19.54,-3.52 -38.58,3.44 -57.49,13.75l-2.45,-2.16l-3.44,1.83l9.7,17.49c22.88,-15 41,-16.63 50.79,-14.87c13.39,2.41 23.73,8.76 30.32,17.33l-3.35,2.08a44,44 0 0 0 -25.9,-14.94c-12.26,-2.23 -26.24,3.25 -38.34,13.03c-13.37,10.83 -27.47,30.69 -42.63,56.1l-8.37,3.73l1.59,2.6a27.6,27.6 0 0 1 6,0.42a27.48,27.48 0 0 1 17.65,11.25c2.39,4.07 3.06,5.31 -0.8,17.09l-8.17,25l2.41,6.3l-6,4.17l-0.68,2.69l41,-1c2.06,-9.41 6.65,-17.7 14.53,-23.35a49.5,49.5 0 0 1 26.86,-8.88a12.69,12.69 0 1 0 19.32,-10.54l1.25,-2l12.3,7.1a7.7,7.7 0 0 0 1.79,-0.26a20,20 0 0 0 5.69,-9.12l-9.71,-27.15a63.2,63.2 0 0 0 7.31,-20.01z" fill="#fff" id="svg_3" stroke="#fff" stroke-miterlimit="10" stroke-width="1.42"/>
  <path d="m54.3,62a1.62,1.62 0 1 1 1.31,1.88a1.61,1.61 0 0 1 -1.31,-1.88m-8.07,15.15l-0.39,-2.15l2.51,-4.4l-1.15,-0.6l-2.49,4.38l1,3.12l0.52,-0.35zm47.67,-21a2.35,2.35 0 0 0 1.89,2.72a2.3,2.3 0 0 0 1,-0.06a2.33,2.33 0 0 1 -3.5,-1.92l0,0.18a2.91,2.91 0 1 0 3.42,-2.36a2.87,2.87 0 0 0 -2.56,0.8a2.2,2.2 0 0 0 -0.25,0.63l0,0.01zm-20.71,-4.84l-0.24,0.22s0,0.29 -0.16,0.28a0.58,0.58 0 0 0 -0.4,0.16c0,0.05 -0.24,0.5 -0.12,0.67l1.44,2.06a0.31,0.31 0 0 0 0.3,0.12a6,6 0 0 0 1.16,-0.71a2,2 0 0 0 0,-0.34l-1.58,-2.24c0.01,-0.1 -0.35,-0.22 -0.4,-0.22m-3.48,-2.31a1.3,1.3 0 0 0 0.23,0.32a6,6 0 0 1 0.57,0.37c0.27,0.22 0.42,0.53 0.61,0.67s0.22,0 0.32,0s0.08,-0.11 0.07,-0.21a4.19,4.19 0 0 1 0.28,-4.34c1.78,-2.14 6.22,-3.73 8,-4.47c0.66,-0.26 0.29,-0.48 0.3,-0.49a35,35 0 0 0 -11.82,5.15c-0.3,0.17 -0.37,0.43 -0.12,0.8l1.56,2.2zm6.06,58a2.86,2.86 0 1 1 -3.31,2.31a2.86,2.86 0 0 1 3.32,-2.31l-0.01,0zm0.19,2.59c-0.19,0.62 -0.63,1 -1.1,0.9a0.21,0.21 0 0 0 -0.09,0.39a1.4,1.4 0 0 0 0.29,0.09a1.16,1.16 0 0 0 1.36,-1a1.1,1.1 0 0 0 0,-0.47a0.2,0.2 0 0 0 0,-0.07a0.2,0.2 0 0 0 0,-0.07a0.24,0.24 0 0 0 -0.11,-0.06l-0.1,0a0.22,0.22 0 0 0 -0.14,0.17a0.15,0.15 0 0 1 -0.1,0.09l-0.01,0.03zm49.8,-20.24l9.71,27.15a20,20 0 0 1 -5.69,9.12a7.7,7.7 0 0 1 -1.79,0.26l-12.3,-7.1l-1.25,2a12.69,12.69 0 1 1 -19.32,10.54c-1.17,0 -2.33,0.13 -3.48,0.25l-0.37,-1.1a1,1 0 0 0 -0.06,-0.1a4.3,4.3 0 0 1 -0.2,-0.7l-0.45,-1.37a8.73,8.73 0 0 0 4.51,-9.5l0,-0.4a0.6,0.6 0 0 1 0,-0.29l-0.59,-1.63c0.16,-0.24 0.12,-0.63 0.28,-0.86s0.57,-0.32 0.76,-0.55c0.06,-0.08 0,-0.18 0.11,-0.27a14,14 0 0 1 1.19,-1.25c0.48,-0.36 2.79,-2.7 2.79,-2.7a8,8 0 0 0 1.54,0.55a6.5,6.5 0 0 0 1.41,0.11c0.17,0 0.55,-0.09 0.67,-0.09a5,5 0 0 0 0.77,-0.26c0.07,0 0.12,-0.15 0.18,-0.27a7,7 0 0 1 -2.5,0a6.5,6.5 0 0 1 -1.6,-0.51l0.81,-0.82a6,6 0 0 0 1,0.28a5.7,5.7 0 0 0 1.54,0.07l0.72,-0.23a8,8 0 0 0 0.78,-0.35a4.5,4.5 0 0 0 0.78,-0.67a1.9,1.9 0 0 0 0.4,-0.67c0,-0.07 -0.21,-0.11 -0.25,-0.08a4.94,4.94 0 0 1 -7.77,-4.91a4.88,4.88 0 0 1 1.58,-2.82a1.3,1.3 0 0 0 -0.55,-0.2a3.7,3.7 0 0 0 -1,1a11,11 0 0 1 -0.55,1.07l-0.28,1.31l-0.18,0.24l-0.18,1a6,6 0 0 0 2.66,4.28l-0.17,0.21c-0.37,0.25 -0.46,0.78 -0.82,1c-0.14,0.09 -2.2,2.28 -3.69,3.57a2.3,2.3 0 0 1 -1.15,0.62c-0.38,-0.26 -1,-0.11 -1.47,-0.33s-0.55,-0.67 -1.19,-0.71l-0.59,0.67l0,0.11l0.08,0.16a7.5,7.5 0 1 1 -6.7,-0.76c0.06,-0.06 0.14,-0.2 0.15,-0.18l-0.48,-0.91l-0.14,0a8.74,8.74 0 0 0 -5.48,6.67a9.4,9.4 0 0 0 -0.14,1.66a0.7,0.7 0 0 1 -0.2,0l-0.16,0c-0.09,0 -0.5,0.12 -0.7,0.16s0,0.21 0,0.32s0.12,0.66 0.14,0.73s0,0.49 0.07,0.52s0,0.65 0,0.65a0.27,0.27 0 0 1 0,0.18a1,1 0 0 0 0,0.19l0,0.88c0,0.32 -0.1,1 -0.1,1s-0.08,0.24 0,0.26s0.2,0.24 0.29,0.29s0.38,0.39 0.41,0.39s0.45,-0.09 0.56,-0.11a8,8 0 0 0 0.71,-0.28a0.5,0.5 0 0 1 0.24,0a1.1,1.1 0 0 0 0.32,0l0.21,-0.08a8.7,8.7 0 0 0 5.41,3.34a8.8,8.8 0 0 0 4.34,-0.32c0,0.11 0.06,0.19 0.07,0.22l0.88,2.68a48.7,48.7 0 0 0 -22,8.46c-7.9,5.67 -12.49,13.96 -14.58,23.37l-41,1l0.74,-2.72l23,-16a0.2,0.2 0 0 0 0.06,-0.15c0,-0.58 -0.05,-1.08 -0.08,-1.74c0,-0.25 -0.07,-0.51 -0.07,-0.8l0,-1.37s0,-0.08 0.08,-0.11c1.46,-1 2.64,-1.87 4.09,-2.85a3.4,3.4 0 0 1 0.37,-0.35c0.42,-0.3 1,-0.64 1.24,-0.77a0.24,0.24 0 0 1 0.1,0l2.43,1l1.27,0.54l11.77,-8.19a11,11 0 0 0 6,3.4a9.74,9.74 0 0 0 6.66,-1.34a0.09,0.09 0 0 0 -0.08,-0.15a9.8,9.8 0 0 1 -3.38,0.69a10,10 0 0 1 -2,-0.16a9.8,9.8 0 0 1 -5.86,-3.44c-0.2,-0.25 -0.19,-0.57 -0.05,-0.56a0.7,0.7 0 0 1 0.15,0c0.06,0 0.12,-0.07 0.12,-0.07a0.5,0.5 0 0 0 0,-0.16l0,-0.48a0.4,0.4 0 0 1 0.2,-0.12s0.12,0.06 0.16,0.08l0.16,0.1l2.23,0.06a0.2,0.2 0 0 0 0.12,0l0.43,-0.29a0.22,0.22 0 0 0 0.08,-0.13s0,-0.12 0.05,-0.19c-0.08,-0.34 -0.12,-0.83 0,-1s0.66,-0.54 1.17,-0.91a0.23,0.23 0 0 1 0.15,-0.1c0.1,0 0.1,-0.11 0.2,-0.16s1.09,-0.81 1.14,-0.83a2,2 0 0 1 0.35,-0.12a3,3 0 0 0 0.31,-0.18l5.8,-4.08c0.2,-0.15 0.07,-0.43 0.07,-0.43a0.24,0.24 0 0 1 0,-0.12c0,-0.13 0.16,-0.36 0.18,-0.44s-0.85,0.13 -1,0.1s-0.64,0.33 -0.71,0.34s-0.08,0.07 -0.08,0.22a0.7,0.7 0 0 1 -0.06,0.33c-0.06,0.06 -0.55,0.78 -0.66,0.93l-8.57,6l-0.1,0.07l-0.13,0.06a0.5,0.5 0 0 1 -0.17,0a8,8 0 0 1 -0.65,-0.38c-0.13,-0.09 -0.68,-0.44 -0.81,-0.5s-0.32,0.07 -0.37,0.07l-0.09,0c-0.01,0 0.06,0.14 0.06,0.18a0.23,0.23 0 0 1 0,0.14a1,1 0 0 1 -0.2,0.12c-0.41,0.17 -1.12,-0.31 -1.4,-1.18a9.7,9.7 0 0 1 -0.21,-4.31a9,9 0 0 1 17.29,-1.64c0.08,0.2 0.34,0.22 0.31,0.12s0.16,-0.06 0.4,-0.15a11,11 0 0 0 1,-0.43c0.21,-0.11 -0.18,-0.68 -0.44,-1.22s-0.24,-0.78 -0.41,-0.85a1.7,1.7 0 0 1 -0.48,-0.42a5.7,5.7 0 0 1 -0.53,-1.14a11,11 0 0 0 -17.31,1l-9.41,-1.7l-0.29,0l-0.44,-0.13l-3.63,-0.66l-0.12,0.18l-0.45,2.53l0.11,0.15l12.89,2.3a11,11 0 0 0 1.48,10.07l-11.18,7.76l-2.35,-1l-1.19,-0.51a0.53,0.53 0 0 0 -0.3,0l-1.31,0.92c-0.86,0.59 -1.56,1.13 -2.43,1.73c-0.34,0.24 -0.86,0.54 -1.19,0.78l-1.83,1.25c-0.1,0.07 -0.06,0.14 -0.06,0.23l0.1,1.83l0,1.99c0,0.06 0,0.09 -0.07,0.11l-16.2,11.28l-2,-5.13l8.17,-25c3.86,-11.78 3.19,-13 0.8,-17.09a27.48,27.48 0 0 0 -17.51,-11.22a27.6,27.6 0 0 0 -6,-0.42l-1.63,-2.58l19.4,-8.72c0.25,-0.13 0.46,-0.2 0.66,-0.29a2.4,2.4 0 0 0 0.31,-0.2c0.05,-0.09 0.36,0 0.37,-0.17l-0.3,-4s0,-0.18 0.06,-0.19l0.63,-0.27l1.7,-0.72c0.24,-0.11 0.56,-0.23 0.79,-0.34c0.42,-0.2 0.9,-0.38 0.9,-0.38a1.05,1.05 0 0 0 0.12,-0.45a2.6,2.6 0 0 0 0,-1l-0.16,0c-0.31,0.06 -1,0.45 -1.31,0.55a15,15 0 0 0 -1.5,0.63c-0.65,0.27 -1.23,0.53 -1.87,0.79l-0.75,0.31c-0.18,0.08 -0.24,0.08 -0.29,0.13a0.5,0.5 0 0 0 -0.09,0.29l0.36,4l-9.57,4.38c14.77,-24.46 28.54,-43.58 41.54,-54.18c12.07,-9.78 26.05,-15.26 38.31,-13a44,44 0 0 1 25.9,14.94l3.38,-2.11c-6.64,-8.55 -16.93,-14.9 -30.32,-17.31c-9.76,-1.76 -27.91,-0.1 -50.79,14.87l-9.7,-17.49l3.44,-1.83l2.45,2.16c4.52,-2.46 9,-4.73 13.59,-6.72l0.79,1.73l0.9,1.9l0.29,0.61l0.21,0.45l0.17,0.31l0.45,1l0.47,0.9l0.41,1l0.46,1l1.39,2.92l0.32,0.11l0.88,-0.61l0,-0.41l-1.34,-2.59l-0.66,-1.6l-0.33,-0.49l-0.54,-1l-0.43,-0.77l-0.17,-0.76l-0.31,-0.38l-0.36,-1.05l-1.33,-2.8c14,-6 28.19,-9.09 42.63,-6.49c22.37,4 38.18,16.26 47.15,32.86l-2,0.92l-4.84,2.21l-2.19,1l-1,0.44l-0.24,0.24l0.54,1.18l1.59,-0.72l0.87,-0.48l0.92,-0.34l2.04,-0.97l2.72,-1.24l2.23,-1a69.5,69.5 0 0 1 4.79,12l-2.3,0.91l-0.53,0.33l-0.65,0.11l-4.07,1.61l-4.29,1.68l0.48,1.23l0.08,0l1.31,-0.51l0.83,-0.35l1.38,-0.52l5.89,-2.25l2.28,-0.89c0.53,1.94 1,3.92 1.39,5.94l-12.54,5.12a41,41 0 0 1 -0.61,9.14a63.2,63.2 0 0 1 -7.33,20.01l-0.01,0.03zm-69.3,-78.35a1.7,1.7 0 0 1 0.45,-0.26a1.1,1.1 0 0 0 0.33,-0.19a0.9,0.9 0 0 1 0.58,-0.23a1,1 0 0 0 0.38,-0.08a1.4,1.4 0 0 1 0.29,-0.08a2.2,2.2 0 0 0 0.49,-0.11a0.8,0.8 0 0 0 0.47,-0.56a3,3 0 0 0 0.06,-0.49a0.08,0.08 0 0 1 0.05,-0.09s0.06,0 0.08,0l0.07,0.09a0.8,0.8 0 0 0 0.23,0.23a0.27,0.27 0 0 0 0.45,-0.16a1,1 0 0 0 0,-0.38l0,-0.11c0,-0.02 0.06,0 0.09,0.07a2,2 0 0 0 0.19,0.19a0.4,0.4 0 0 0 0.52,0a0.68,0.68 0 0 1 0.52,-0.05a1.2,1.2 0 0 0 0.45,0a1,1 0 0 0 0.4,-0.27a0.8,0.8 0 0 1 0.44,-0.26a0.56,0.56 0 0 0 0.29,-0.12a0.48,0.48 0 0 1 0.42,-0.2l0.25,0a0.34,0.34 0 0 0 0.32,-0.28a0.8,0.8 0 0 0 -0.07,-0.47a2.3,2.3 0 0 0 -0.29,-0.57a0.3,0.3 0 0 0 -0.45,0a0.58,0.58 0 0 1 -0.44,0.13a0.62,0.62 0 0 0 -0.53,0.17a0.58,0.58 0 0 1 -0.45,0.15a1,1 0 0 0 -0.83,0.32a0.7,0.7 0 0 1 -0.52,0.24a1,1 0 0 0 -0.24,0a4,4 0 0 1 -0.49,0.1a1.5,1.5 0 0 0 -0.6,0.23c-0.13,0.08 -0.26,0.16 -0.4,0.23a0.57,0.57 0 0 0 -0.36,0.57a1,1 0 0 1 0,0.25l0,0.06l-0.06,0l-0.13,-0.14a0.7,0.7 0 0 0 -0.18,-0.16c-0.24,-0.12 -0.35,-0.06 -0.5,0.15a0.22,0.22 0 0 1 -0.27,0.1l-0.08,0a0.47,0.47 0 0 0 -0.51,0.07a0.6,0.6 0 0 0 -0.17,0.11c-0.08,0.14 -0.11,0.31 -0.2,0.44s-0.08,0.09 -0.14,0a0.64,0.64 0 0 0 -0.92,-0.16a0.88,0.88 0 1 0 1,1.48l0.01,0.04zm0.06,1.39a0.79,0.79 0 0 1 0.63,-0.24a0.83,0.83 0 0 0 0.44,-0.06a3,3 0 0 1 0.23,-0.12a3,3 0 0 1 0.48,-0.15a2,2 0 0 1 0.23,-0.08a0.9,0.9 0 0 0 0.36,-0.15a1.24,1.24 0 0 0 0.38,-0.55l0,-0.07a0.85,0.85 0 0 0 -0.68,-0.08a5,5 0 0 0 -0.58,0.27l-0.2,0.1a1.1,1.1 0 0 1 -0.4,0.16a1.5,1.5 0 0 0 -0.55,0.13a4,4 0 0 1 -0.45,0.21l-0.16,0.06c-0.05,0 -0.08,0.05 -0.13,0.07a0.31,0.31 0 0 0 -0.18,0.32a0.42,0.42 0 0 0 0.24,0.29a0.34,0.34 0 0 0 0.34,-0.15l0,0.04zm5.52,-1.3c0,-0.1 -0.11,-0.11 -0.2,-0.12a0.4,0.4 0 0 0 -0.13,0.03a2,2 0 0 1 -0.41,0.13a3.6,3.6 0 0 0 -0.77,0.22l-0.21,0.08a2.5,2.5 0 0 0 -0.74,0.29a2.6,2.6 0 0 1 -0.77,0.27a2.5,2.5 0 0 0 -0.52,0.18a1,1 0 0 1 -0.34,0.12a1,1 0 0 0 -0.38,0.11a4.2,4.2 0 0 1 -0.8,0.39c-0.1,0.06 -0.23,0.07 -0.33,0.17a0.39,0.39 0 0 0 -0.1,0.43a0.3,0.3 0 0 0 0.35,0.2a4,4 0 0 0 0.47,-0.13c0.25,-0.06 0.48,-0.18 0.72,-0.26s0.4,-0.2 0.6,-0.3a4,4 0 0 1 0.55,-0.22l0.65,-0.19a4.3,4.3 0 0 0 0.69,-0.31c0.21,-0.12 0.46,-0.16 0.68,-0.26a1.4,1.4 0 0 0 0.33,-0.19a1.3,1.3 0 0 1 0.45,-0.31a0.3,0.3 0 0 0 0.15,-0.1c0.04,-0.1 0.1,-0.17 0.06,-0.27l0,0.04zm0,-0.92l0.48,-0.08c0.2,-0.05 0.39,-0.14 0.56,-0.2l0.41,-0.17a0.25,0.25 0 0 0 0.22,-0.27a0.34,0.34 0 0 0 -0.27,-0.32a0.64,0.64 0 0 0 -0.41,0a2,2 0 0 1 -0.25,0.09c-0.2,0.06 -0.41,0.1 -0.6,0.17s-0.5,0.23 -0.74,0.34a2.5,2.5 0 0 1 -0.46,0.17a3.4,3.4 0 0 0 -0.55,0.23l-0.17,0.08a3,3 0 0 1 -0.46,0.25a0.82,0.82 0 0 0 -0.42,0.38s0,0.06 0,0.08a0.7,0.7 0 0 0 0.42,0.09c0.22,0 0.44,-0.12 0.66,-0.17s0.23,-0.09 0.36,-0.12a1.8,1.8 0 0 0 0.69,-0.34a1.1,1.1 0 0 1 0.55,-0.25l-0.02,0.04zm5.87,-1.23a0.32,0.32 0 0 0 -0.2,-0.27a0.66,0.66 0 0 0 -0.46,0c-0.36,0.14 -0.73,0.28 -1.08,0.44a5,5 0 0 1 -0.56,0.25a5,5 0 0 0 -0.52,0.17l-0.29,0.11a2,2 0 0 0 -0.51,0.27a0.64,0.64 0 0 1 -0.25,0.11a3,3 0 0 0 -0.4,0.08c-0.24,0.08 -0.47,0.18 -0.71,0.25a0.6,0.6 0 0 0 -0.35,0.23a0.36,0.36 0 0 0 -0.05,0.31a0.47,0.47 0 0 0 0.33,0.19a0.65,0.65 0 0 0 0.43,-0.11a2.7,2.7 0 0 1 0.58,-0.26a1.4,1.4 0 0 0 0.55,-0.28a1.2,1.2 0 0 1 0.66,-0.27a1.6,1.6 0 0 0 0.63,-0.16c0.22,-0.12 0.47,-0.19 0.7,-0.29l0.06,0a3,3 0 0 0 0.7,-0.23a6,6 0 0 1 0.54,-0.24a0.3,0.3 0 0 0 0.2,-0.3m-6.76,114.33a1,1 0 0 1 0.19,-0.19a0.37,0.37 0 0 0 0.15,-0.13a0.46,0.46 0 0 1 0.26,-0.19a0.5,0.5 0 0 0 0.19,-0.08a0.6,0.6 0 0 1 0.13,-0.08a1.3,1.3 0 0 0 0.24,-0.12a0.42,0.42 0 0 0 0.17,-0.33a2,2 0 0 0 0,-0.23l0.05,0a0.7,0.7 0 0 0 0.18,0.08c0.11,0 0.2,0 0.21,-0.14a0.4,0.4 0 0 0 0,-0.19l0,-0.06c0,-0.06 0,0 0,0l0.12,0.07a0.21,0.21 0 0 0 0.27,0a0.3,0.3 0 0 1 0.22,-0.13a1,1 0 0 0 0.23,-0.08a0.5,0.5 0 0 0 0.17,-0.19a0.47,0.47 0 0 1 0.19,-0.18a0.4,0.4 0 0 0 0.13,-0.09a0.26,0.26 0 0 1 0.18,-0.13l0.12,0a0.18,0.18 0 0 0 0.13,-0.18a0.4,0.4 0 0 0 -0.09,-0.23a0.9,0.9 0 0 0 -0.22,-0.25a0.16,0.16 0 0 0 -0.23,0a0.28,0.28 0 0 1 -0.2,0.12a0.33,0.33 0 0 0 -0.25,0.16a0.28,0.28 0 0 1 -0.21,0.12a0.52,0.52 0 0 0 -0.39,0.27a0.33,0.33 0 0 1 -0.23,0.18l-0.12,0l-0.23,0.11a0.8,0.8 0 0 0 -0.28,0.19l-0.17,0.16a0.29,0.29 0 0 0 -0.11,0.33l0,0.13l-0.08,0a0.3,0.3 0 0 0 -0.11,-0.06c-0.14,0 -0.19,0 -0.24,0.13a0.13,0.13 0 0 1 -0.12,0.09l-0.05,0a0.28,0.28 0 0 0 -0.25,0.1l0,0.09a2,2 0 0 1 0,0.25c0,0.06 0,0.06 -0.07,0a0.34,0.34 0 0 0 -0.49,0a0.46,0.46 0 0 0 0.68,0.63l-0.07,0.05zm0.19,0.7a0.42,0.42 0 0 1 0.29,-0.2a0.43,0.43 0 0 0 0.22,-0.09a0.4,0.4 0 0 1 0.1,-0.08l0.23,-0.14l0.1,-0.06a0.5,0.5 0 0 0 0.17,-0.12a0.63,0.63 0 0 0 0.12,-0.33a0.43,0.43 0 0 0 -0.35,0a2,2 0 0 0 -0.26,0.21l-0.09,0.07a0.6,0.6 0 0 1 -0.18,0.13a0.7,0.7 0 0 0 -0.26,0.13l-0.21,0.17l-0.07,0l-0.06,0.06a0.17,0.17 0 0 0 0,0.18a0.21,0.21 0 0 0 0.16,0.11a0.15,0.15 0 0 0 0.09,-0.01l0,-0.03zm2.64,-1.33l-0.12,0a0.1,0.1 0 0 0 -0.07,0a1.2,1.2 0 0 1 -0.19,0.12a1.6,1.6 0 0 0 -0.36,0.2a0.3,0.3 0 0 1 -0.1,0.06a1.6,1.6 0 0 0 -0.34,0.24a1.2,1.2 0 0 1 -0.36,0.23a1.6,1.6 0 0 0 -0.24,0.15a0.4,0.4 0 0 1 -0.16,0.1a0.7,0.7 0 0 0 -0.18,0.11a2.6,2.6 0 0 1 -0.35,0.29s-0.11,0.07 -0.15,0.13a0.22,0.22 0 0 0 0,0.22a0.17,0.17 0 0 0 0.2,0.07a2,2 0 0 0 0.23,-0.13c0.11,-0.06 0.22,-0.15 0.33,-0.22a2,2 0 0 0 0.27,-0.22a2,2 0 0 1 0.25,-0.18l0.3,-0.17a3,3 0 0 0 0.32,-0.24a4,4 0 0 1 0.31,-0.22a1,1 0 0 0 0.14,-0.13a0.8,0.8 0 0 1 0.19,-0.21l0.07,-0.07a0.12,0.12 0 0 0 0.01,-0.13m0.13,-0.56a3,3 0 0 0 0.26,-0.17l0.19,-0.14a0.15,0.15 0 0 0 0.06,-0.13a0.21,0.21 0 0 0 -0.18,-0.14a0.35,0.35 0 0 0 -0.2,0.07l-0.12,0.08l-0.28,0.16c-0.12,0.08 -0.23,0.17 -0.34,0.26a1,1 0 0 1 -0.21,0.14a2,2 0 0 0 -0.25,0.18l-0.07,0.06a1.6,1.6 0 0 1 -0.2,0.18a0.45,0.45 0 0 0 -0.18,0.25a0.3,0.3 0 0 0 0.23,0l0.31,-0.17l0.16,-0.1a0.86,0.86 0 0 0 0.31,-0.26a0.7,0.7 0 0 1 0.26,-0.21l0.25,-0.06zm2.6,-1.21a0.16,0.16 0 0 0 -0.14,-0.11a0.3,0.3 0 0 0 -0.22,0.07l-0.5,0.35a1.5,1.5 0 0 1 -0.25,0.19l-0.25,0.15l-0.12,0.09a1.1,1.1 0 0 0 -0.23,0.2l-0.11,0.08a1.2,1.2 0 0 0 -0.2,0.09a4,4 0 0 1 -0.33,0.22a0.36,0.36 0 0 0 -0.15,0.15s0,0.14 0,0.16a0.24,0.24 0 0 0 0.18,0.07a0.35,0.35 0 0 0 0.21,-0.12a1.6,1.6 0 0 1 0.26,-0.19a1,1 0 0 0 0.25,-0.21a0.65,0.65 0 0 1 0.3,-0.22a0.8,0.8 0 0 0 0.31,-0.16l0.32,-0.23a1.4,1.4 0 0 0 0.33,-0.2a2.4,2.4 0 0 1 0.25,-0.2a0.14,0.14 0 0 0 0.09,-0.18m2.28,-1a0.71,0.71 0 1 0 -0.82,0.57a0.71,0.71 0 0 0 0.8,-0.54l0.02,-0.03zm-24,26.38c-0.4,-0.51 -0.74,-0.94 -1.13,-1.46l-0.49,-0.44c-0.22,-0.29 -0.31,-0.58 -0.76,-0.65c-0.23,0.23 -0.52,0.43 -0.76,0.65l0,0.33c0.56,0.65 1,1.16 1.55,1.89a5.6,5.6 0 0 0 0.58,0.71a1.53,1.53 0 0 0 1.01,-1l0,-0.03zm38,-29.29c-0.4,-0.37 -0.82,-0.75 -1.27,-1.14c-0.11,0 -0.2,0.05 -0.31,0.05a0.62,0.62 0 0 0 -0.23,0.56c0.16,0.17 0.86,0.74 1.23,1.05s0.55,0 0.59,-0.48l-0.01,-0.04zm13.91,9.06a11.5,11.5 0 0 0 0.65,-1.48c0.12,-0.34 0.24,-0.72 0.34,-1.07s0.14,-0.59 0.2,-0.89a11.7,11.7 0 0 0 -0.08,-4.58c-0.07,-0.29 -0.14,-0.54 -0.17,-0.63a1.6,1.6 0 0 0 -0.17,-0.46l-0.11,0c-0.02,0 0,0.24 0,0.46a0.56,0.56 0 0 1 0,0.33c0,0.18 0.1,0.46 0.09,0.59s0,0.39 -0.11,0.4s0,0 -0.1,-0.06s-0.08,-0.13 -0.13,-0.06s0.13,1 0.13,1.71l0,0.22a9,9 0 0 1 -0.1,1.39a2.3,2.3 0 0 1 -0.08,0.71a1.6,1.6 0 0 0 -0.1,0.29a10.9,10.9 0 0 1 -2.85,5.25s0.26,0.19 0.39,0.18s0.15,0 0.18,-0.09s0.55,-0.45 0.68,-0.58a18,18 0 0 0 1.35,-1.6l-0.01,-0.03zm6.14,13.98l-0.27,-0.22l-0.26,-0.24c-0.1,-0.08 -0.32,-0.24 -0.61,-0.5a9.5,9.5 0 0 1 -1.65,-13.19c0.2,-0.33 0.42,-0.63 0.57,-0.9s0.69,-0.89 0.75,-0.92s-0.06,-0.09 -0.06,-0.09l-0.06,-0.05l-0.08,0a0.07,0.07 0 0 0 -0.06,0s-0.47,0.34 -0.58,0.41a4,4 0 0 0 -0.31,0.25c-1,0.76 -2.33,2.54 -2.9,5.68a10.1,10.1 0 0 0 0.85,5.88a7.5,7.5 0 0 0 1.78,2.25a8.9,8.9 0 0 0 2.45,1.85l0.14,0.08l0.13,0l0.09,-0.06l0.08,-0.23zm24.47,-84.76c-0.12,-0.21 0,-0.44 0,-0.76a1.6,1.6 0 0 0 -0.59,-1a0.52,0.52 0 0 0 -0.38,-0.11s-0.28,0 -0.32,0.08c-0.07,0.42 -0.08,1.75 -0.22,2.35s-0.26,1.31 -0.49,2a9,9 0 0 0 -0.32,1c0,0.3 0.1,0.25 0.35,0.27c0.47,-0.35 1.74,-0.39 2,-0.92l-0.03,-2.91zm-1.08,-5.87l0,-0.6c0,-0.13 -0.22,-0.26 -0.28,-0.38a11.5,11.5 0 0 1 -0.41,-1.52a10,10 0 0 0 -0.51,-1.25c-0.19,-0.45 -0.35,-1.25 -0.82,-1.41a0.7,0.7 0 0 0 -0.43,-0.17a0.6,0.6 0 0 1 -0.16,0.11a6.5,6.5 0 0 0 0.55,1.5c0.25,0.57 0.43,1.12 0.67,1.7c0.36,0.89 0.74,1.93 1,2.88c0.23,0.74 0.27,2.32 1,2.4l0,-0.11c0.14,-0.09 -0.52,-2.76 -0.61,-3.15m-4.08,-15.22a13,13 0 0 1 1.63,2.45c0.52,0.83 1.27,1.61 1.74,2.5c0.28,0.53 0.95,2.1 1.47,2.28l0.21,0c0.22,-0.21 0.37,-0.26 0.38,-0.7c-0.41,-0.53 -0.67,-1.38 -1,-1.95c-1.15,-1.74 -2.15,-3.43 -3.4,-5.06l-0.87,0a0.63,0.63 0 0 0 -0.16,0.48m1,7.83a0.47,0.47 0 0 0 -0.27,-0.06c-0.1,0.11 -0.16,0.11 -0.22,0.28s-0.05,0.13 -0.05,0.27a2,2 0 0 0 0.22,0.27c0.1,0.08 0.18,0.1 0.27,0s0.2,0 0.27,-0.21a0.4,0.4 0 0 0 -0.19,-0.53l-0.03,-0.02zm-5.64,21.41a8.6,8.6 0 0 0 -1.16,0.77c-0.68,0.43 -0.88,-0.17 -0.82,1.08a1.2,1.2 0 0 1 0.27,0.22c0.91,0 6.12,-2.78 6.58,-2.94s1.61,-0.66 1.61,-0.66a8.5,8.5 0 0 0 1.27,-1.07c0,-0.28 0,-0.36 -0.22,-0.44a1.55,1.55 0 0 0 -0.7,-0.05a4,4 0 0 1 -0.71,0.27c-0.49,0.21 -2.22,1 -2.38,1.1l-1.63,0.74c-0.11,0.08 -1.26,0.59 -2.11,0.98m-7,-20l0.32,0.27a12,12 0 0 1 2.61,0l0.82,0a9.7,9.7 0 0 0 2.5,0.54a0.9,0.9 0 0 0 0,-0.32a9,9 0 0 0 -1.25,-0.88l-0.54,-0.11c-0.63,-0.4 -1,-1 -2,-1.09c-0.6,0.36 -2.46,0.78 -2.46,1.54l0,0.05zm1.64,28.3a2.6,2.6 0 0 0 0.79,0l0,-0.08l0.11,0l0,0.06l0.58,1.47l-0.06,0.19c-0.08,0.18 0,0.18 0,0.21a0.66,0.66 0 0 1 0.18,0.24c0,0.08 0,0.3 0.06,0.36s0.08,0 0.16,0l0.34,-1.15c0.14,-0.55 0.3,-1.17 0.3,-1.22a0.4,0.4 0 0 1 0.07,-0.14c0.11,-0.28 0.39,-1.31 0.4,-1.39a3.6,3.6 0 0 0 -0.1,-0.64a1.2,1.2 0 0 1 0,-0.68s0.44,-0.81 0.55,-1.08s0.53,-1.8 0.54,-1.86s-0.22,-0.21 -0.24,-0.22a3.6,3.6 0 0 0 -0.48,0.3a0.39,0.39 0 0 1 -0.37,0a0.9,0.9 0 0 1 -0.09,-0.35a0.76,0.76 0 0 0 -0.26,-0.34a4,4 0 0 0 -0.46,-0.09s0,0 -0.08,0.07a1.8,1.8 0 0 0 -0.23,0.57s0.1,0.14 0.11,0.22s-0.21,0.1 -0.25,0.14a2.5,2.5 0 0 1 -0.42,0.14c-0.13,0 -0.15,0.2 -0.17,0.3a0.7,0.7 0 0 0 0.07,0.4c0.07,0.08 0,0.19 0,0.26a0.7,0.7 0 0 1 -0.08,0.14a1.61,1.61 0 0 1 -0.49,3.14a0.4,0.4 0 0 1 -0.17,0.05a0.34,0.34 0 0 1 -0.14,-0.08a1.64,1.64 0 0 1 -0.74,-0.35l-0.17,0a4.6,4.6 0 0 1 -0.54,-0.46a2,2 0 0 1 -0.19,-0.45a1.3,1.3 0 0 1 0.21,-0.24l0.12,-0.14l0,-0.21a1.6,1.6 0 0 1 1.09,-1.24a0.4,0.4 0 0 0 -0.07,-0.09l-0.64,-0.33l-0.72,0.26a4,4 0 0 0 -0.24,0.35a0.7,0.7 0 0 1 -0.23,0.36a0.7,0.7 0 0 1 -0.18,0.09a2.6,2.6 0 0 0 -0.1,0.4a2.72,2.72 0 0 0 2.24,3.06l-0.01,0.05zm-11.53,-24.11c-0.59,0.21 -2.69,1.11 -3.34,1.38s-3.6,1.66 -3.6,1.66l-1.37,0.71c-0.94,0.41 -1.87,0.81 -2.77,1.22c0,0 -15.15,6.85 -19.69,9a10,10 0 0 1 -1.13,0.53l-1.7,0.78l-0.11,0.14l-0.35,2.39a10,10 0 0 1 -0.34,2.21c-0.12,0.49 -0.07,0.89 -0.19,1.38a2.4,2.4 0 0 0 -0.08,1.02l0.16,0a0.27,0.27 0 0 0 0.22,-0.06l0.05,-0.07l0.4,-1.62a1,1 0 0 1 0.06,-0.26l1,-4.14l0.29,-0.13l0.85,-0.43c1,-0.47 1.2,-0.53 1.63,-0.75c0.91,-0.41 5.45,-2.5 5.92,-2.76a7.4,7.4 0 0 0 1.15,-0.6c0.35,-0.18 1.72,-0.64 2,-0.82c0.62,-0.27 1.22,-0.42 1.85,-0.7c0.21,-0.1 1.44,-0.73 1.9,-0.93c0.64,-0.27 1.32,-0.79 2,-1c0.2,0 1.65,-0.75 2.18,-1l0.49,-0.11a4.5,4.5 0 0 1 1.79,-0.76l0.11,0l0.64,0.58l0.48,-0.27l0.22,0.22a11.4,11.4 0 0 0 -0.61,3.17a5.14,5.14 0 0 0 9.37,2.93a15,15 0 0 1 -1.88,0.8l0.07,-0.85a6.28,6.28 0 0 0 1.76,-3.73a4.06,4.06 0 0 0 -0.94,-1.86l0,-0.16c0.18,0 0.18,0.11 0.33,0.07s0.14,-0.2 0.15,-0.25s-0.08,-0.56 -0.08,-0.56a5.4,5.4 0 0 0 -1,-0.79a0.75,0.75 0 0 0 -0.33,-0.06a2,2 0 0 1 -0.21,0.18l-0.32,0.27l0,0.08s-0.16,0.3 -0.21,0.29s-0.12,-0.14 -0.18,-0.25a3,3 0 0 0 -0.62,-0.16a4,4 0 0 0 -0.6,-0.07l-0.46,-1l-0.26,-0.44l-0.57,-0.41l0.17,-0.06c0.6,-0.35 1.24,-0.58 1.9,-0.92c0.15,-0.08 0.28,-0.26 0.43,-0.33c0.35,-0.15 0.68,-0.12 1,-0.27l1.14,-0.7c1,-0.43 7.27,-3.64 7.72,-4.08s2.32,-1 2.39,-1.74l-0.27,0c-0.21,0.14 -0.49,0.14 -0.71,0.27a23,23 0 0 1 -2.5,1.25l-0.54,0.11c-0.56,0.24 -1.14,0.73 -1.69,1s-2.54,1.23 -3.17,1.46m7.16,38.42l0.4,0c0.11,0 0.46,0.11 0.83,0.16c0.18,0 0.24,-0.09 0.37,-0.14s0.08,-0.09 0.09,-0.32c-0.11,-0.06 0,-0.1 -0.11,-0.14c-0.4,-0.13 -0.87,-0.19 -1.29,-0.28c-1.3,-0.28 -2.63,-0.53 -4,-0.79l-0.17,0l0.1,-0.21a1.7,1.7 0 0 0 -0.14,-0.6a5.4,5.4 0 0 0 -0.35,-0.68l-0.18,0s-0.08,0.06 -0.11,0l-0.2,-0.1a4,4 0 0 0 -0.08,-0.4s0,0 0,-0.07a2.62,2.62 0 0 0 -4.78,1a1.8,1.8 0 0 0 0,0.52l0.07,0.06a0.13,0.13 0 0 1 0.1,0c0.07,0 0.09,0.15 0.11,0.2a1.4,1.4 0 0 0 0.08,0.3l0.25,-0.06a4,4 0 0 1 0.34,-0.57a3,3 0 0 1 0,-0.26a1.67,1.67 0 0 1 3.28,0.59a1.65,1.65 0 0 1 -0.43,0.84s0,0.21 0.09,0.22a2,2 0 0 1 0.23,0.13l0.55,0.06l0.87,0c0.07,-0.06 0.13,-0.16 0.19,-0.2s0,-0.14 0.16,-0.1a2.3,2.3 0 0 1 0.49,0.17l0.1,0.1l0.6,0.1l2.54,0.47zm-1.61,0.75a2.7,2.7 0 0 0 -0.93,-0.11s0,0 -0.16,0.06s-0.25,0.17 -0.32,0.38a0.27,0.27 0 0 0 0.16,0.43c0.29,0.2 1.53,-0.19 1.85,-0.27a1,1 0 0 0 0.11,-0.27c-0.1,-0.31 -0.37,-0.28 -0.71,-0.26l0,0.04zm-14.2,3.76l0.72,-1c0.16,-0.32 0.23,-1 0.53,-1.2l0.07,-0.15l0.21,0c0.29,0 0.68,0.1 0.93,0.06l0,-0.11c0.11,-0.17 0,-0.39 -0.06,-0.54a4,4 0 0 0 -0.33,-0.16l-2,-0.35a6,6 0 0 1 -0.18,0.91a4.85,4.85 0 0 1 -9.47,-2.09l0.12,-0.58l-7.13,-1.3l-0.19,0c-0.39,0.44 -0.08,0.24 -0.28,0.76l-0.32,0.33c-0.13,0.19 -0.91,1.93 -1,2.11c-0.59,1.16 -0.78,1.73 -1.18,2.51c-0.19,0.37 -0.82,1.61 -0.59,1.95c0,0.13 0,0.09 0.1,0.17s0.23,0.07 0.42,0c0.22,-0.54 0.41,-1 0.67,-1.5c0.08,-0.15 0.5,-1 0.67,-1.25l2,-4.27l0.41,0l1.29,0.23a4,4 0 0 1 0.85,0.1c0.57,0.14 1.21,0.26 1.84,0.39l1,0.21l0.07,0.26a6,6 0 0 0 0,1.34c0.15,0.09 0.07,0.09 0.13,0.2s0,0.17 0,0.25a1,1 0 0 0 0.1,0.3a2.4,2.4 0 0 1 0.17,0.39a1.1,1.1 0 0 1 0,0.37a6.08,6.08 0 0 0 10.36,1.41l0.07,0.25zm-0.12,7.62a7.4,7.4 0 0 0 -0.5,-1c-0.07,-0.14 0,-0.1 -0.14,-0.34a7,7 0 0 0 -0.41,-0.79a1,1 0 0 1 -0.18,-0.35a0.3,0.3 0 0 0 0,-0.14a0.25,0.25 0 0 0 -0.18,0c-0.06,0.07 -0.41,0.13 -0.52,0.25a0.14,0.14 0 0 0 0,0.15c0.16,0.35 0.44,0.83 0.55,1.15c0.19,0.51 0.44,0.69 0.5,0.94a2,2 0 0 0 0.13,0.36c0.11,0.28 0.17,0.33 0.24,0.35s0.05,0 0.22,-0.08c0.33,-0.15 0.38,-0.18 0.4,-0.24a0.29,0.29 0 0 0 -0.11,-0.3l0,0.04zm-10.56,-4.29l-0.4,0c-0.39,0.39 -0.93,0.87 -1.32,1.23c-0.09,0.13 -0.17,0.15 -0.26,0.27a2,2 0 0 0 -0.34,0.33c-0.11,0.17 -0.12,0.25 -0.06,0.35a1.3,1.3 0 0 0 0.2,0.2c0.07,0.07 0.11,0.16 0.23,0.16c0.24,-0.22 0.57,-0.54 0.83,-0.74s0.55,-0.48 0.81,-0.77s0.5,-0.45 0.63,-0.6s-0.1,-0.22 -0.32,-0.43m-7.25,0.37a8,8 0 0 0 -0.7,-1l-0.33,0l-0.27,0.32c0,0.77 0.57,1.19 0.87,1.69c0.16,0.26 0.12,0.48 0.43,0.59a0.34,0.34 0 0 0 0.22,0.06a0.66,0.66 0 0 0 0.11,-0.44c-0.37,-0.36 -0.09,-0.74 -0.33,-1.22m21,-10.6c0,-0.06 0.17,-0.23 0.15,-0.36s-0.22,-0.25 -0.21,-0.37a1.8,1.8 0 0 0 -0.71,-0.19c-0.5,-0.11 -0.91,-0.18 -1.4,-0.27l-1.86,-0.33l-1.5,-0.28c-1.1,-0.2 -3.62,-0.59 -4.11,-0.74c-2.75,-0.54 -5.25,-0.83 -7.85,-1.37s-0.16,-0.43 -0.17,-0.49s0,-0.07 0,-0.13a2.76,2.76 0 0 0 -4.11,-2.29a0.08,0.08 0 0 1 0.07,0.07a1,1 0 0 1 0,0.25a0.4,0.4 0 0 1 -0.08,0.11l-0.14,0l-0.29,0.1c-0.07,0 -0.29,0.28 -0.29,0.28a1.7,1.7 0 0 0 -0.24,0.53c0,0.13 0.1,0.56 0.1,0.56a0.8,0.8 0 0 0 0.15,0.13a0.46,0.46 0 0 1 -0.06,0.34a0.41,0.41 0 0 0 -0.08,0.35c0.06,0.11 0.19,0.23 0.22,0.3s0,0.25 0.16,0.36a1.6,1.6 0 0 0 0.37,0.26s0.06,0 0.06,-0.1a3,3 0 0 1 -0.21,-0.38a4,4 0 0 1 -0.14,-0.54a2,2 0 0 0 -0.17,-0.34s0,-0.13 0.08,-0.13a0.44,0.44 0 0 0 0.23,0a0.2,0.2 0 0 0 0,-0.08a1.66,1.66 0 1 1 3.27,0.59a1.62,1.62 0 0 1 -1,1.24s0,0 0,0.08l0.17,0a0.7,0.7 0 0 0 0.29,0.11a1.4,1.4 0 0 0 0.5,-0.21c0.27,-0.12 0.18,0.11 0.29,0.16a0.5,0.5 0 0 0 0.28,0l2,-0.21l2.51,0.46c0.27,0.06 0.67,0 1,0.11c1.62,0.39 3.39,0.57 5,1c0.43,0 0.9,0.14 1.33,0.16s1.52,0.36 1.8,0.38c0.09,0 2.64,0.5 3,0.57a8,8 0 0 0 1.58,0.31l0.01,0zm-28.92,-12.13l-0.23,-0.08l-0.26,0.06l-0.2,1.09a2,2 0 0 0 0.08,0.31a0.6,0.6 0 0 0 0.27,0a0.6,0.6 0 0 1 0.12,-0.08l0.3,-1.13a1,1 0 0 0 -0.08,-0.17m-10.76,-20.48c0,0.06 0.2,0.27 0.2,0.27c0.79,0.94 2.76,3.26 2.9,3.4s2.22,2.53 2.35,2.64l1.73,2l-0.15,1.88l1.11,0.61l1.15,-1.31l33.78,-15.49c0.35,-0.16 -0.54,-0.82 -1,-1.25a6.7,6.7 0 0 0 -1.49,-1c-0.51,-0.28 -3.08,-1.42 -3.08,-1.42a7,7 0 0 0 -0.89,-0.72c-0.26,-0.12 -1,-0.66 -1.12,-0.62s-0.17,0.29 -0.17,0.35s0,0.08 -0.23,0.19l-0.26,0.11a18.2,18.2 0 0 0 -6.26,0a2.38,2.38 0 0 1 -1.19,-0.85a0.22,0.22 0 0 1 0.1,-0.33a30.4,30.4 0 0 1 5.83,-0.93l0.47,0.13c0.75,0.46 1.08,0.71 1.29,0.83a12,12 0 0 0 1.65,0.34a2.6,2.6 0 0 1 1.12,-0.37a3.4,3.4 0 0 1 2.41,0.66a3.54,3.54 0 0 0 1.4,0.68c0.81,0.28 0.7,0 0.7,0a1.6,1.6 0 0 1 -0.4,-0.66c0,-0.27 -1,-0.7 -1.52,-1.06a5,5 0 0 0 -1.22,-0.6l-0.07,0c-0.46,-0.16 -1.67,-0.61 -1.93,-0.72s-0.9,-0.37 -1.07,-0.46s-0.42,-0.29 -0.52,-0.34a0.5,0.5 0 0 0 -0.19,-0.06c-2.7,-0.65 -6.15,-0.22 -9.84,0.82a74.5,74.5 0 0 0 -12.69,5.17a0.4,0.4 0 0 1 -0.06,0.16a3,3 0 0 1 -0.27,0.27a2,2 0 0 0 0,0.22a1,1 0 0 1 -0.13,0.28a2,2 0 0 1 -0.24,0.31c-0.07,0 -0.57,0.63 -0.57,0.63l-0.08,0c-0.06,0 -0.06,0.07 -0.1,0.11a0.6,0.6 0 0 1 -0.14,0.13s-0.09,0 -0.15,-0.07s-0.12,-0.22 -0.19,-0.23s-0.75,-0.32 -0.82,-0.32l-0.13,0l-1,0.55c0,0.06 0,0.14 -0.05,0.18a2.4,2.4 0 0 1 -0.51,0.29c-0.13,0 -0.18,-0.05 -0.27,0a93,93 0 0 0 -8,5a0.5,0.5 0 0 0 -0.1,0.15s-0.07,0.39 -0.09,0.45m-5.59,76.09c-0.33,0.24 -1.37,0.93 -2.07,1.4l-0.07,0.08a6,6 0 0 0 -0.55,0.34c-0.54,0.38 -1.08,0.83 -1.65,1.21c-0.42,0.29 -2.2,1.47 -2.66,1.8c-0.28,0.19 -1.61,1.1 -2,1.36a6,6 0 0 0 -0.81,0.54c-0.2,0.15 -4.31,2.92 -5.49,3.69a13.7,13.7 0 0 0 -3.59,2.67c-0.31,0.41 -0.93,0.57 -1,1.22a1.6,1.6 0 0 0 0.44,0.06c0.33,-0.46 1.06,-0.46 1.53,-0.79l0.38,-0.44c0.54,-0.39 1.11,-0.76 1.63,-1.14c0.34,-0.24 0.73,-0.3 1.09,-0.54a9,9 0 0 1 0.92,-0.65a8,8 0 0 1 1.14,-0.77l1.65,-1.13c0.47,-0.31 0.9,-0.76 1.36,-1.08c0.21,-0.16 1.54,-1 2,-1.31s1.17,-0.63 1.73,-1l3.32,-2.34l1.27,-0.86c0.93,-0.67 1.87,-1.32 2.82,-2l0,-0.68l-0.08,-0.32l0,-0.09l-0.06,0l-1.25,0.77zm-9.85,-23.09c0,0.06 -0.19,0.86 -0.21,0.91a12,12 0 0 0 0.23,1.69a0.9,0.9 0 0 0 0.32,0.41c0.08,0 0.62,0.36 0.9,0.31s0.25,0 0.29,0s0.16,-0.31 0.23,-0.31l0.16,0a4,4 0 0 0 0.69,0a0.4,0.4 0 0 0 0.1,-0.11a0.7,0.7 0 0 0 0.13,-0.31c0,-0.07 -0.07,-0.24 -0.07,-0.27a2,2 0 0 1 0,-0.29a1,1 0 0 1 0.1,-0.24a1.6,1.6 0 0 0 0.06,-0.62c0,-0.2 0,-0.19 -0.05,-0.22a10.5,10.5 0 0 1 -1.42,-1c-0.22,-0.25 -0.4,-0.48 -0.38,-0.52s-0.16,-1.58 -0.17,-1.7s-0.07,-0.61 -0.08,-0.64s-0.17,0 -0.21,0a10.6,10.6 0 0 0 -0.53,1.64a8.6,8.6 0 0 0 -0.09,1.27m2.1,18.41a9,9 0 0 0 3,4.25l0.58,-0.4l1,-0.71c0.11,-0.09 0.4,-0.19 0.64,-0.35a7,7 0 0 0 0.72,-0.56c0.16,-0.1 0.4,-0.32 0.66,-0.48s0.32,-0.16 0.47,-0.25l0.29,-0.19a1.83,1.83 0 0 1 -0.87,-1.92a1.7,1.7 0 0 1 0.47,-0.9l-0.13,-0.31l-0.32,-0.12s-2.89,-1.13 -3,-1.16a2,2 0 0 0 -0.25,0l-1.91,0a4,4 0 0 0 -0.33,0.51l0,0.1a18,18 0 0 0 -1.02,2.44l0,0.05zm0.49,-14.82a8.3,8.3 0 0 0 -1.28,0.39a3,3 0 0 0 -0.44,0.24a1.6,1.6 0 0 0 -0.09,0.78c0.06,0.24 0.44,0.7 0.46,0.81a1.5,1.5 0 0 0 0.21,0.47l0.31,0.36c0.09,0.11 0.41,0.71 0.48,0.76s0.13,0.17 0.21,0.18s0.39,0 0.46,-0.11s0.08,-0.08 0.09,-0.16s0,-1.74 0,-1.86s0,-1.81 0.06,-1.85s-0.04,-0.11 -0.47,-0.01m0.67,-1.88a0.7,0.7 0 0 0 0.17,0.24a2.2,2.2 0 0 0 0,0.66a0.9,0.9 0 0 0 0.21,0.46a0.65,0.65 0 0 0 0.5,0.12a1.8,1.8 0 0 1 0.45,-0.19a4,4 0 0 0 0.63,0.06a8,8 0 0 0 0.81,-0.27a1.2,1.2 0 0 0 0.47,-0.51a7,7 0 0 0 -0.26,-1.15c-0.12,-0.34 -0.38,-1.52 -0.41,-1.62s-0.18,-1.32 -0.19,-1.44s0,-0.55 0,-0.69s-0.11,-0.15 -0.19,-0.07s-0.77,1.08 -0.83,1.2s-0.61,1.19 -0.66,1.32l-0.18,0.45a0.56,0.56 0 0 1 -0.37,0.39a1,1 0 0 0 -0.25,0.22s-0.06,0.48 -0.05,0.55s0.11,0.22 0.12,0.27l0.03,0zm3.09,8.7c0,-0.09 -0.33,-1.13 -0.38,-1.27a3.7,3.7 0 0 0 -0.35,-0.63c-0.14,-0.15 -0.17,-0.16 -0.22,-0.18l-0.13,0s-0.22,0.18 -0.26,0.2a0.7,0.7 0 0 1 -0.29,0a1.1,1.1 0 0 1 -0.25,-0.17a0.12,0.12 0 0 1 0,-0.08a0.28,0.28 0 0 0 -0.09,-0.21l-0.16,0a0.8,0.8 0 0 0 -0.24,0.1a2.8,2.8 0 0 0 -0.52,0.81s0,0.07 0,0.11a0.6,0.6 0 0 0 -0.06,0.17a1.35,1.35 0 0 0 0,0.72a0.62,0.62 0 0 0 0.3,0.29a0.42,0.42 0 0 0 0.26,0.12a0.14,0.14 0 0 0 0.09,0c0.38,0.08 1,0.2 1,0.23a11,11 0 0 0 1.13,0c0.06,-0.04 0.16,-0.13 0.14,-0.21l0.03,0zm2.85,-0.33c0,-0.07 -0.27,-1.32 -0.31,-1.44a0.29,0.29 0 0 0 -0.19,-0.2a0.5,0.5 0 0 1 -0.18,-0.18c0,-0.06 -0.06,-0.4 -0.14,-0.43a0.52,0.52 0 0 0 -0.37,0a1,1 0 0 0 -0.49,0.38a17,17 0 0 0 0,2a4,4 0 0 0 0.16,0.89a0.73,0.73 0 0 0 0.61,0.3a1.1,1.1 0 0 0 0.65,-0.34a6,6 0 0 0 0.23,-0.98l0.03,0zm1.15,0.91a1,1 0 0 0 -0.22,-0.22s-0.23,0 -0.25,0a1,1 0 0 0 0.05,0.3a1,1 0 0 0 0.15,0.11s0.42,0.03 0.24,-0.18l0.03,-0.01zm1.49,-0.57a0.63,0.63 0 0 0 -0.2,-0.32c-0.05,0 -0.26,-0.1 -0.33,-0.13s-0.12,0 -0.16,-0.09a0.5,0.5 0 0 0 -0.26,-0.17c-0.08,0 -0.12,-0.12 -0.24,-0.13a1,1 0 0 0 -0.27,0l-0.17,0a0.5,0.5 0 0 0 0,0.19a1.6,1.6 0 0 0 0,0.37l0.19,0.3a3,3 0 0 1 0.11,0.29a1.3,1.3 0 0 1 0,0.28a1.3,1.3 0 0 0 0,0.29a0.6,0.6 0 0 0 0.18,0.19a1,1 0 0 0 0.26,0.08a0.2,0.2 0 0 0 0.08,0.07a0.8,0.8 0 0 0 0.29,0a0.14,0.14 0 0 0 0.05,-0.15a0.7,0.7 0 0 0 0.27,-0.27a1.6,1.6 0 0 0 0.11,-0.35a0.87,0.87 0 0 0 0.06,-0.45l0.03,0zm6,-20.34l-1,-1.53c-0.06,-0.09 -0.71,-1 -0.72,-1a0.28,0.28 0 0 0 -0.21,-0.07l-0.91,0.23a0.9,0.9 0 0 1 -0.32,0c-0.06,0 -0.81,-0.66 -0.89,-0.7s-0.59,-0.47 -0.65,-0.5a0.5,0.5 0 0 0 -0.19,-0.08l-0.77,0c-0.01,0 -0.95,1 -0.95,1.07s-0.06,0.1 0,0.12a2.5,2.5 0 0 1 0.18,0.37a0.4,0.4 0 0 1 0,0.15s-0.82,1.1 -0.82,1.1s-0.09,0.06 -0.11,0a3.7,3.7 0 0 0 -0.3,-0.65a2,2 0 0 0 -0.33,-0.39a1.5,1.5 0 0 0 -0.26,-0.2l1.25,-3.07s0.72,-0.76 1,-1.15a10,10 0 0 0 0.64,-1a2,2 0 0 0 0.13,-0.24l0.07,-0.13a3,3 0 0 0 0.12,-0.26s0.05,-0.11 0.05,-0.12l0,-0.06a0.4,0.4 0 0 0 0,-0.06l-0.14,0a0.1,0.1 0 0 0 0,-0.08s-0.07,0 -0.08,0s0,0 0,-0.07s-0.06,0 -0.08,0a8,8 0 0 0 -0.68,0.63l-0.06,0.07l0,0.2a0.4,0.4 0 0 0 -0.09,0l-0.06,0s-0.06,0.07 -0.06,0.09l0,0.09s0,0.06 -0.06,0.06a0.12,0.12 0 0 1 -0.05,0.06a2,2 0 0 0 -0.08,0.28c0,0.07 0,0.08 -0.06,0.09s-0.21,0 -0.27,0s-0.07,-0.12 -0.1,-0.17s-0.41,-2.64 -0.4,-2.68s0,-0.23 0,-0.29s0.95,-1.23 0.94,-1.27s0.08,-1.24 0.09,-1.28s0.15,0 0.15,0s0.11,0.24 0.15,0.25l0.07,0a4,4 0 0 1 0.61,-2.14a4.2,4.2 0 0 1 1.09,-0.8c0.07,0 0.1,-0.08 0.09,-0.13a7,7 0 0 0 -0.92,-0.1c-0.18,0 -0.46,0.34 -0.5,0.37s-0.56,0.75 -0.61,0.76l-0.22,0s-0.46,0.59 -0.49,0.61s-0.06,0.12 -0.11,0.13a1.8,1.8 0 0 0 -0.37,0.33c0,0.1 0,0.22 -0.07,0.24a4,4 0 0 0 -0.08,0.45s0,0.11 0.05,0.12s0.19,0 0.19,0.07a1,1 0 0 1 -0.05,0.2l-0.44,0.11l-0.13,0.22l-0.11,0.32a1,1 0 0 1 -0.26,0.06l-0.13,0a2.2,2.2 0 0 0 -0.79,0.32c-0.24,0.22 -0.2,0.14 -0.25,0.1s-0.35,-0.55 -0.38,-0.56s0,-0.06 -0.09,0l-0.28,0.1l-0.06,0.1a4,4 0 0 1 -0.19,0.88c-0.09,0.19 -0.19,0.52 -0.21,0.54a0.2,0.2 0 0 0 0,0.09s0.29,0.5 0.32,0.54s0,0.14 0,0.16s-0.71,1.02 -0.72,1.02a0.32,0.32 0 0 1 -0.14,0.14l-0.44,0s-0.08,-0.06 -0.08,-0.08s-0.13,-0.45 -0.2,-0.66a5,5 0 0 0 -0.51,-1.14a4,4 0 0 0 -0.72,-0.78l-0.6,-0.52c-0.21,-0.15 -0.49,-0.37 -0.55,-0.4l-0.55,-0.54a1,1 0 0 1 -0.1,-0.91a0.34,0.34 0 0 0 -0.06,-0.24c0,-0.07 -0.06,-0.24 -0.11,-0.28a6.4,6.4 0 0 1 0,-1s0.2,-0.27 0.22,-0.32a2,2 0 0 1 0.24,-0.28a11,11 0 0 1 -1,-0.78c0,-0.09 0.11,-0.29 0.18,-0.42s0.26,-0.17 0.26,-0.17s0.18,0.08 0.18,0.1s0.87,0.63 1,0.68l0.29,0.21a3,3 0 0 0 0.36,0.21a0.7,0.7 0 0 1 0.18,0.14l0.56,0.41s0.06,0.08 0.11,0s1.31,-1.91 1.36,-2s0.1,-0.09 0.1,-0.18a3,3 0 0 0 -0.26,-0.49a1.5,1.5 0 0 1 -0.1,-0.34a2,2 0 0 1 0,-0.41a4,4 0 0 1 0.23,-0.46c0,-0.09 0.08,-0.1 0.09,-0.18s-0.1,-0.18 -0.1,-0.22a0.24,0.24 0 0 0 -0.16,-0.11a0.14,0.14 0 0 1 -0.1,-0.13s0.28,-0.43 0.34,-0.42s4.52,0.33 4.6,0.29l0.3,-0.18a1,1 0 0 1 0.44,0a7,7 0 0 1 0.83,0.17c0.06,0 3.08,2.83 3.11,2.85s0.08,0.1 0.14,0.1s1.31,-1.23 1.34,-1.26s0.71,-0.7 0.76,-0.79a2,2 0 0 0 0.1,-0.3a4,4 0 0 0 0.09,-0.51a5,5 0 0 0 -0.19,-0.74c-0.08,-0.2 -0.18,-0.63 -0.31,-0.73a9,9 0 0 0 -0.93,-0.67c-0.13,-0.06 -0.6,-0.61 -0.75,-0.69a4.6,4.6 0 0 1 -0.22,-1.42l0,-0.17c0,-0.01 0.8,-1 0.84,-1.14s1.28,-3.08 1.28,-3.08l2.65,-2s0.23,0.33 0.21,0.38s-0.43,1.13 -0.47,1.16l-0.7,0.36s-0.11,0 -0.12,0.06s-1.12,3.45 -1.08,3.58s0.26,1.44 0.26,1.52s0.1,0.11 0.12,0.15s2.77,2.17 2.79,2.19s0.11,0 0.13,0s0.09,-0.06 0.11,-0.13s1.22,-7.87 1.22,-7.87l-0.18,-0.34a0.32,0.32 0 0 1 0,-0.19c0,-0.05 0.41,-0.23 0.42,-0.26a0.3,0.3 0 0 0 0,-0.07l0,-0.11c0,-0.04 -0.29,-0.61 -0.29,-0.61l-0.09,0a4.5,4.5 0 0 1 -0.59,0.13l-0.14,0c-0.03,0 -1.13,-0.77 -1.12,-0.8s0.34,-0.72 0.35,-0.76s0.09,-0.13 0,-0.17s-7.45,-7.94 -7.51,-8a1,1 0 0 0 -0.24,-0.15l-0.1,0s-7.4,6.06 -7.43,6.08s-0.71,0.81 -0.88,1s-0.77,1.61 -0.8,1.68s-0.14,0.51 -0.16,0.58s0,0.49 0,0.53s-0.8,3.52 -1,5c-0.12,1.15 -0.35,2.81 -0.46,3.55l-0.74,2.11c-0.24,0 -3.52,1.59 -5.37,2.41c-0.42,0.18 -0.79,0.37 -1,0.45s-0.13,0.15 -0.19,0.09c-0.31,-0.19 -1.33,-0.76 -1.91,-1.13c-0.06,0 -0.12,-0.13 -0.17,-0.16c-0.21,-0.14 -0.47,-0.26 -0.67,-0.39s-0.77,-0.47 -1.12,-0.68l-0.17,0l-0.3,0.12a5,5 0 0 1 -0.78,0.34c-0.39,0.17 -2.15,0.86 -2.66,1.18c-0.06,0 -0.28,0.06 -0.34,0.1s-0.26,0.35 -0.35,0.51a1.27,1.27 0 0 0 -0.24,1l0.11,0c0.24,0.11 0.78,-0.23 1,-0.33c0.82,-0.31 1.51,-0.6 2.32,-1l0.71,-0.3a0.46,0.46 0 0 1 0.24,0l0.67,0.41c0.25,0.16 0.59,0.34 0.9,0.52s0.79,0.5 1.15,0.73l0.47,0.32a5,5 0 0 0 0.53,0.29l0.27,0l1.41,-0.63l1,-0.47c0.76,-0.34 1.49,-0.73 2.24,-1.06c0.2,0 0.37,-0.16 0.57,-0.2s0.94,-0.43 1.45,-0.65a19,19 0 0 0 -0.46,2a3.1,3.1 0 0 0 0.41,0.94l0.17,0.33l0,2.62a1,1 0 0 1 0,0.17l-0.43,0.75s-1.41,2.96 -1.47,3.05s-0.94,1.61 -1,1.64a1,1 0 0 0 -0.05,0.16a13.3,13.3 0 0 1 1.47,4.13a1.4,1.4 0 0 0 0.18,-0.12s0.28,0.27 0.3,0.29a0.7,0.7 0 0 0 0.14,0.08a5,5 0 0 0 0.48,-0.51c0,-0.07 0.08,-0.08 0,-0.14l-0.3,-0.62c-0.05,-0.09 -0.91,-1.73 -1.05,-1.94a1.9,1.9 0 0 0 -0.52,-0.4s0,-0.19 -0.08,-0.31a1.2,1.2 0 0 1 0,-0.46a7,7 0 0 1 0.55,-0.38a1.14,1.14 0 0 1 0.57,0a3,3 0 0 1 0.47,0.22c0.12,0.06 0.12,0.31 0.19,0.4s0.17,0.53 0.19,0.55s0.66,1 0.83,1.2s1,1.35 1.08,1.43l1.61,1.5s0.86,1 0.92,1a0.32,0.32 0 0 1 0.08,0.19a3.2,3.2 0 0 1 -0.4,1l-1.33,1.57l-0.39,0.48l-0.39,1.11s-0.07,0.06 -0.11,0.05l-0.54,-0.06a4,4 0 0 1 0,-0.47s0.39,-0.37 0.4,-0.41s0,-0.24 0,-0.28s-0.08,-0.07 -0.08,-0.07l-0.35,0l-0.12,-0.08s0,-0.76 -0.05,-0.85a1.2,1.2 0 0 1 0.1,-0.38s0.5,-1.29 0.54,-1.38s0.08,-0.14 0.07,-0.22s-0.13,-0.66 -0.15,-0.71a3.3,3.3 0 0 0 -0.83,-0.2c-0.09,0 -1.16,0.38 -1.21,0.43l-0.63,0.76a6.8,6.8 0 0 1 -0.76,2.8c0,0.06 -0.05,0.12 -0.08,0.17a6,6 0 0 1 -0.38,0.61s-0.06,0.17 -0.06,0.17l0,0.88c0,0.14 0.16,0.71 0.19,0.79a1.9,1.9 0 0 0 0.29,0.57c0.12,0.11 0.08,0.14 0.17,0.14s0.24,-0.12 0.26,-0.13s0,0 0.06,-0.06s0,-0.39 0,-0.39l0,-0.12a4,4 0 0 1 0.36,0.12a3,3 0 0 0 0.31,0.29c0.07,0 0.13,0 0.17,0.06a0.8,0.8 0 0 0 0.24,0s0.16,0.12 0.18,0.2c0.1,0.42 0.53,2.07 0.58,2.24s0.06,0.47 0.29,0.31a1,1 0 0 0 0.2,-0.2l0.89,-2.54c0,-0.07 0.11,-0.15 0.18,-0.13a1.5,1.5 0 0 0 0.59,-0.12a1,1 0 0 0 0.28,-0.16a0.19,0.19 0 0 1 0.22,0c0.08,0.06 0.69,0.39 0.77,0.43s0.26,0.16 0.25,0.2a1.7,1.7 0 0 0 0.35,0.95c0.31,0.32 0.28,0.36 0.36,0.29a0.5,0.5 0 0 1 0.28,-0.15a0.34,0.34 0 0 0 0.24,-0.09s0.33,-0.68 0.4,-0.8a1,1 0 0 1 0.27,-0.31a5.3,5.3 0 0 1 1.18,-0.5c0.07,0 0.19,0.09 0.19,0.12a0.62,0.62 0 0 1 -0.19,0.33c-0.08,0 -0.1,0.08 -0.17,0.18c-0.08,0.15 -0.3,0.84 -0.3,0.84s-0.71,2.9 -0.72,2.92s-0.39,0.85 -0.46,0.93a7,7 0 0 1 -0.49,0.47s0,0.15 0,0.24a0.8,0.8 0 0 0 0.17,0.32a0.7,0.7 0 0 1 0.1,0.24s-0.16,0.22 -0.13,0.32s0,0.35 0,0.41s0.1,0.21 0.1,0.21l0,0.21c0,0.02 -0.06,0 -0.1,0.07a1.5,1.5 0 0 0 -0.08,0.21l-0.06,0.21s-0.06,0.22 -0.1,0.33a1,1 0 0 1 -0.23,0c-0.16,0 -0.82,0 -1,-0.08s-0.66,-0.14 -0.8,-0.2a1.1,1.1 0 0 1 -0.34,-0.28c-0.12,-0.11 -0.21,-0.18 -0.25,-0.17a1.36,1.36 0 0 0 -0.41,0.66a4.1,4.1 0 0 0 0.4,1.47a9.5,9.5 0 0 0 1,1a3.3,3.3 0 0 0 0.53,0.48c0.17,0.12 0.3,0.27 0.38,0.25s0.46,-0.11 0.57,-0.15s0.14,-0.09 0.15,-0.15s-0.11,-0.2 0,-0.3a0.8,0.8 0 0 0 0.12,-0.16c0.05,-0.06 0.07,-0.11 0.11,-0.13a0.8,0.8 0 0 0 0.2,-0.2l0,-0.1c0,-0.1 -0.16,-0.45 -0.16,-0.49s-0.06,-0.32 -0.05,-0.37s0,-0.16 0.09,-0.16s0.14,0.1 0.27,0.24s0.77,0.76 0.85,0.83s0.52,0.41 0.6,0.46s0.62,0.31 0.72,0.34s0.25,0 0.29,0a2,2 0 0 0 0.37,-0.73a3.7,3.7 0 0 0 0,-0.75a1.3,1.3 0 0 0 -0.21,-0.43c0,-0.08 -0.14,-0.3 -0.18,-0.34s0,-0.35 0,-0.37l0,-0.1a2,2 0 0 1 0,-0.23l0.33,0.27c0.06,0 0.49,0.32 0.61,0.38l0.48,0.23l0.11,0.15a5,5 0 0 0 0.32,0.41l0.34,0.3c0.07,0 0.12,0.11 0.12,0.14a1.8,1.8 0 0 0 0.1,0.6a0.9,0.9 0 0 0 0.22,0.28s0.18,0.23 0.24,0.27a0.93,0.93 0 0 0 0.62,0a1.5,1.5 0 0 0 0.54,-0.74a16,16 0 0 0 0.26,-1.7a1.9,1.9 0 0 0 -0.3,-1c-0.12,-0.16 -0.45,-0.5 -0.57,-0.5l-0.63,0c-0.12,0 -1.09,-0.08 -1.21,-0.06s-1,0.37 -1.19,0.41s-0.3,0.15 -0.35,0.14a8,8 0 0 0 -1.66,-0.12a0.23,0.23 0 0 1 -0.22,-0.12c0,-0.1 -0.15,-0.19 -0.2,-0.3s0,-0.46 0,-0.51s0,-0.11 0.07,-0.14l0.16,0a4.4,4.4 0 0 0 1,-0.14c0.22,-0.08 0.33,-0.16 0.33,-0.2s0.07,-1.55 0.06,-1.64a0.27,0.27 0 0 1 0.09,-0.21s0.46,-0.28 0.61,-0.39s0.18,-0.09 0.17,0a1.14,1.14 0 0 0 0.06,0.51a1.3,1.3 0 0 0 0.33,0.19a0.31,0.31 0 0 1 0.17,0.26a6.5,6.5 0 0 0 0,1s0.16,0.64 0.17,0.67a0.3,0.3 0 0 0 0.26,0.1a4.3,4.3 0 0 0 1.15,-0.43a1.28,1.28 0 0 0 0.42,-0.7s0,-0.39 -0.1,-0.81c0,-0.19 0,-0.38 0.17,-0.35s0.46,0.3 0.61,0.41a2,2 0 0 1 0.33,0.42a1.5,1.5 0 0 1 0.12,0.67a11,11 0 0 0 0.21,1.29a1,1 0 0 1 0,0.24c0,0.08 0.1,0.29 0.15,0.38s0.14,0.1 0.22,0.17a1,1 0 0 1 0.14,0.33c0,0.06 0.09,0.13 0.1,0.22s0.2,-0.15 0.24,-0.15l0.15,0.09a3,3 0 0 0 0.36,0.15a0.11,0.11 0 0 1 0.08,0.07a0.65,0.65 0 0 0 0,0.39a1.2,1.2 0 0 0 0.17,0.43a2,2 0 0 1 0.14,0.29a0.34,0.34 0 0 0 0.38,0.22l0.23,-0.14c0.17,-0.11 0.16,-0.59 0.18,-0.94s0,-1.17 0,-1.31s-0.65,-0.25 -0.36,-0.25l-1.35,0a1.1,1.1 0 0 1 -0.27,-0.19c-0.09,0 -0.09,-0.27 -0.09,-0.3s0.1,-0.19 0.1,-0.19a3,3 0 0 1 0.1,-0.38a0.63,0.63 0 0 1 0.34,-0.11a1.5,1.5 0 0 0 0.67,0a1.3,1.3 0 0 0 0.42,-0.58a9.5,9.5 0 0 0 -0.06,-1.37c0,-0.21 -0.38,-1.93 -0.43,-2s0,-0.23 -0.11,-0.24l-0.74,-0.16l-0.14,0.14s-0.41,1.07 -0.54,1.58c-0.08,0.12 -0.17,0.1 -0.27,0.06s-0.14,-0.14 -0.23,-0.21s-0.51,-0.53 -0.67,-0.66a5,5 0 0 1 -0.39,-0.59a4,4 0 0 1 -0.39,-0.36c0,-0.08 -0.13,-0.24 -0.21,-0.09s-0.69,1.38 -0.76,1.53a0.9,0.9 0 0 1 -0.24,0.21a3,3 0 0 1 -0.31,0.14c-0.08,0 -0.13,0.07 -0.17,0l-0.2,-0.17s-0.09,-0.2 -0.12,-0.27c0,-0.27 -0.07,-0.56 -0.1,-0.77a11,11 0 0 0 -0.66,-1.76a0.3,0.3 0 0 0 0,-0.08a1.2,1.2 0 0 1 0.06,-0.29a2,2 0 0 1 0.2,-0.39l0.19,-0.13c0.09,0 0.18,0 0.18,0.06s0.09,0.78 0.12,0.87s0,0.19 0.1,0.19a5,5 0 0 0 0.69,-0.11l0.23,-0.12a0.66,0.66 0 0 0 0.21,-0.3c0,-0.08 0.08,-0.51 0.1,-0.55a7.5,7.5 0 0 1 1,0a0.23,0.23 0 0 0 0.18,0s1,-1.31 1.06,-1.36s0.05,-0.09 0.16,-0.08a0.8,0.8 0 0 1 0.3,0.1s0,0.09 0,0.13s-0.58,1.32 -0.62,1.36a0.18,0.18 0 0 0 0,0.2a2,2 0 0 0 0.51,0.25c0.19,0 0.46,0.06 0.51,0a5.7,5.7 0 0 0 0.9,-0.79a1.1,1.1 0 0 0 0.24,-0.46a4.4,4.4 0 0 1 0.13,-1.23c0.16,-0.45 0.44,-1.14 0.46,-1.18s-0.19,-0.24 -0.23,-0.25s-1,-0.09 -1,-0.07a0.3,0.3 0 0 1 -0.17,0l-0.25,0a0.6,0.6 0 0 0 -0.25,0s-0.32,0.59 -0.34,0.64s-0.06,0.14 -0.13,0.13s-0.59,0 -0.65,0s-0.16,0 -0.15,-0.07a3,3 0 0 1 0.31,-0.4s0.29,-0.56 0.33,-0.62a0.42,0.42 0 0 0 0,-0.27c0,-0.07 0,-0.2 0.11,-0.22s0.51,-0.23 0.59,-0.24s1.16,-0.22 1.27,-0.26a2,2 0 0 0 0.26,-0.05c0.09,0 1,-0.35 1.1,-0.37a1.2,1.2 0 0 0 0.37,-0.21a0.9,0.9 0 0 0 0.04,-0.45l-0.01,0zm-2.25,-6.73a4.4,4.4 0 0 0 0.69,0.35s0,0.06 0.11,0a10,10 0 0 0 1,-1c0.05,-0.07 0,-0.13 0,-0.16s-1.46,0 -1.6,0s-0.28,-0.1 -0.34,-0.11a0.45,0.45 0 0 0 -0.23,0c-0.09,0 -0.14,0.23 -0.14,0.23a0.4,0.4 0 0 0 0.13,0.17c0.09,0.06 0.07,0.15 0.18,0.17s0.21,0 0.23,0a0.74,0.74 0 0 1 -0.03,0.35m3.11,4.23s1.25,0.74 1.29,0.75s0.09,0 0.11,0s0.69,-0.33 0.72,-0.33l0.07,0l1.4,-1.93a1,1 0 0 1 0.17,-0.12l1.63,-0.87a2.6,2.6 0 0 0 0.34,-0.5a1.3,1.3 0 0 0 0,-0.26a2,2 0 0 1 2,-3a2,2 0 0 1 1.6,2.31a2,2 0 0 1 -0.16,0.5l0.11,0.06l0.11,-0.06l1.32,-0.79s0.18,-0.12 0.21,-0.11s1.31,0 1.59,-0.06l0.76,-1.42l0,-0.07a4,4 0 0 1 -0.14,-0.43s0,-0.15 0,-0.17s0.5,-0.42 0.54,-0.44s0.12,-0.1 0.17,-0.36c0,-0.09 -0.18,-0.34 -0.42,-0.5l-1.83,-0.56l-1.14,-3.51l0,-0.07a9.7,9.7 0 0 0 -1.86,-0.54a6.4,6.4 0 0 0 -1.6,-0.1a3,3 0 0 0 -0.41,0.31a0.6,0.6 0 0 1 -0.13,0s-0.47,0.39 -0.5,0.38s-0.06,0.31 -0.06,0.31a0.8,0.8 0 0 1 -0.22,0l-0.49,0a5,5 0 0 0 -0.1,0.51s0,0 -0.07,0s-2.84,-1.67 -3,-1.76s-0.76,-0.64 -0.78,-0.66l-0.07,0s-0.38,-1 -0.4,-1l-0.21,0c-0.03,0 -1.29,1.33 -1.32,1.34s-0.41,0.4 -0.43,0.42l-0.07,0.08s1.72,1.55 1.74,1.58a0.3,0.3 0 0 1 0.06,0.12s0.27,2.55 0.25,3s0,1.49 -0.08,2.08s-0.21,1.86 -0.24,1.94s0,0.09 0,0.1l-0.48,0.15a1.1,1.1 0 0 0 -0.27,0.18l0,0.09l0.06,0.1a4,4 0 0 1 0.37,0.52a4,4 0 0 1 0.09,0.43s0,0.06 0,0.07l-0.58,0.13a1,1 0 0 0 -0.18,0.08l-0.58,0.5l0,0.14l1,1.33s0,0.1 0.06,0.11l0.05,0zm10.51,-2.75c-0.1,0 -1.73,0.35 -1.77,0.38s-1.26,0.3 -1.28,0.3l-0.24,0.06s-0.17,0.22 -0.2,0.25s-0.17,0.55 -0.18,0.56s-0.14,0.4 -0.14,0.42s0.71,-0.06 1,0a11,11 0 0 1 1.64,0.13l0.94,0.2l0.29,-0.48l1.1,-2.05c-0.33,0.06 -1.13,0.23 -1.21,0.23l0.05,0zm-4.92,9l-0.55,-0.48c-0.29,-0.26 -0.64,-0.55 -0.8,-0.68s-0.21,0 -0.25,0s-0.08,0.15 -0.15,0.18s-0.15,0.14 -0.17,0.21s0,0.13 0,0.22c0.16,0.15 0.68,0.6 1,0.88s0.46,0.37 0.69,0c0.09,-0.03 0.23,-0.16 0.18,-0.29l0.05,-0.04zm0.62,11.07a0.87,0.87 0 1 0 -0.31,1.71a0.87,0.87 0 1 0 0.31,-1.71m11.36,18.45s-0.27,0.7 -0.33,0.82l-0.24,0.49a0.7,0.7 0 0 0 0.08,0.52c0.12,0.12 0.54,-0.27 0.67,-0.4s0.44,-0.41 0.5,-0.49s0.26,-0.3 0.23,-0.46s-0.12,-0.19 -0.22,-0.32l-0.31,-0.42s-0.25,-0.16 -0.43,0.3l0.05,-0.04zm13.63,-14.45l-0.22,-0.53a9,9 0 0 0 -1.49,-0.43l-0.28,0.26l-0.14,0.77s0,0.08 0.07,0.13a8,8 0 0 1 1.28,0.36l0.25,0c0.08,0 0.06,-0.12 0.14,-0.08l0.39,-0.48zm5.82,-4.78c0,-0.17 -0.1,-0.36 -0.15,-0.55s0,-0.15 -0.18,-0.15a2,2 0 0 1 -0.46,0.13c-0.46,0.11 -1.09,0.26 -1.28,0.34a0.5,0.5 0 0 0 -0.14,0.15a2,2 0 0 1 0.09,0.3c0,0.08 0.05,0.19 0.06,0.26s0.29,0 0.47,0c0.42,-0.13 1,-0.28 1.32,-0.36a0.6,0.6 0 0 0 0.22,-0.08l0.05,-0.04zm5.87,-2.22c0,-0.06 -0.07,-0.16 -0.07,-0.22s0,0 -0.05,-0.11l-0.17,0a0.66,0.66 0 0 0 -0.35,-0.12c-0.37,0.4 -0.56,0.63 -1.13,1.27l0,0.27c0,0.07 0.2,0.19 0.33,0.29s0.15,0 0.26,0c0.24,-0.28 0.56,-0.61 0.84,-1l0.34,-0.38zm12.45,30.29l-0.85,-0.69l-0.36,0a1,1 0 0 0 -0.17,0.49c0.08,0.08 0.12,0.2 0.23,0.29l0.76,0.62a0.77,0.77 0 0 0 0.53,0.23a0.83,0.83 0 0 0 0.32,-0.49c-0.14,-0.12 -0.31,-0.33 -0.46,-0.45m12.16,-13.82c-0.29,-0.18 -0.49,-0.53 -0.76,-0.71s-0.46,-0.13 -0.66,-0.27s-1.78,-1.17 -2.33,-1.58c-0.15,-0.14 -2.28,-1.45 -3.16,-2.06a19,19 0 0 0 -1.57,-1l-4.89,-3.32c-0.17,-0.16 -1.63,-1.1 -2.18,-1.47s-1.15,-0.93 -1.74,-1.3c-0.34,-0.22 -1.15,-0.38 -1.25,-0.82l0.06,0a1.7,1.7 0 0 0 0.43,-0.06l0.08,-0.14l0.1,-0.28c0.12,-0.3 0.32,-0.74 0.38,-0.89a0.12,0.12 0 0 0 0,-0.12l0.19,-0.53c0.12,-0.09 0.18,-0.14 0.09,-0.26a1.3,1.3 0 0 1 -0.22,-0.41l0.08,0s0.77,-0.34 0.94,-0.41l0.17,-0.07a3.4,3.4 0 0 1 0.44,-0.2c0.13,0 1.32,-0.55 1.4,-0.56a3,3 0 0 0 0.29,-0.1a0.7,0.7 0 0 0 0.19,-0.13a9.64,9.64 0 0 0 -5.61,-10.68l-0.5,0.55l0,0.19a8.8,8.8 0 0 1 5.36,7.78l-0.2,0.23c-0.06,0 -1,0.38 -1,0.41l0,0.06l-0.18,0.07c-0.05,0.08 -0.11,0.32 -0.15,0.38a0.09,0.09 0 0 1 -0.14,0c-0.06,0 -0.18,0 -0.22,-0.07a0.7,0.7 0 0 0 -0.28,0l-0.35,0.15l-0.2,0a1,1 0 0 0 0,-0.14a6.67,6.67 0 0 0 -4.37,-7.48a2,2 0 0 1 -0.62,-0.42a5,5 0 0 1 -0.46,-0.4a2.6,2.6 0 0 1 -0.34,-0.64c0,-0.19 -0.39,-0.76 -0.36,-1.1l0,-0.12l0.07,-1.35l0,-0.32l0.18,-2a2,2 0 0 1 0,-0.45c0,-0.48 0,-0.72 0.08,-1.13c0,-0.1 -0.19,-0.25 -0.23,-0.26a3.5,3.5 0 0 0 -1.36,-0.1l-0.06,0.17c-0.18,0.29 0.12,0.43 0.33,0.59l0.27,0l0,0.29c-0.05,0.54 -0.09,1.06 -0.14,1.64a5.4,5.4 0 0 1 -0.06,0.85l-0.11,1.31l0,0.33a4,4 0 0 0 0,0.39l-0.04,1.11l0,0.63l-9.4,5.78l-1.58,1l-0.53,0.31l-1.69,1l-0.08,0.1l-0.1,0.06l-0.43,0.18l-4.57,-0.82c-0.38,0 -1.31,-0.22 -1.42,-0.25l-2.15,-0.38l-2,-3.13l-0.74,-1.15c-0.24,-0.38 -0.67,-1.47 -1.14,-1.52l-0.17,0.27l-0.06,0.59l-0.07,0.69c0.17,0.56 0.59,1 0.71,1.42l0.06,0.07l-0.74,3.23l-1,0.83l0,0.47l0.57,1.22a3.5,3.5 0 0 0 -1.78,0.49l-1.28,-1.61l0,-0.44a7.1,7.1 0 0 0 1.29,-3a4,4 0 0 0 0.06,-0.49a4,4 0 0 0 -0.08,-1.08c-0.14,-0.24 -0.9,-1.68 -1,-1.74a1.7,1.7 0 0 0 -0.29,-0.17l-0.17,0.09a5.86,5.86 0 0 1 -6.49,7.92a5.88,5.88 0 0 1 -4.73,-6.46a0.3,0.3 0 0 0 0,-0.1l0,-0.26c0.12,-0.62 0.42,-1.78 0.42,-1.78l-0.25,-0.2l-0.58,0.65s-0.26,0.5 -0.51,1.06l-0.08,1l-0.06,1a7,7 0 0 0 9.82,5.78l0,0.12l0.86,0l1.67,1.35a3.8,3.8 0 0 0 -0.31,0.95a3.67,3.67 0 0 0 2.79,4.23l0,1.3l0.15,0.06l0.7,0.12s0.08,0 0.09,-0.07l0.22,-0.76l0.16,-0.53l0,-0.07a3.66,3.66 0 0 0 1.64,-6.6c-0.32,-0.25 -0.21,-0.58 0.24,-0.63l1.83,-0.25a0.22,0.22 0 0 1 0.22,0.12l1.07,2.33a0.25,0.25 0 0 1 0,0.19l-0.38,0.91l0,0.15a3,3 0 0 0 0,0.3c0,0.14 0,0.34 0.1,0.35s0.06,0 0.11,0a3,3 0 0 1 0.29,0.32c0,0.07 0.22,0.18 0.24,0.21s0,0 0.05,0a10.9,10.9 0 0 1 3.62,-1.24l0.17,0a10,10 0 0 1 1.08,-0.09a2,2 0 0 1 0.4,0l1.23,0a0.7,0.7 0 0 1 0.21,0l0.53,0.08a11,11 0 0 1 1.14,0.27l0.14,0c0.08,0 0.27,-0.11 0.26,-0.09s0.16,-0.65 0.16,-0.65s0.08,-0.18 0.06,-0.22a2.2,2.2 0 0 1 0.06,-0.52a0.4,0.4 0 0 0 0.07,-0.11l1.19,-4.92c0.45,-0.6 5.11,-3.28 5.35,-3.44s0.49,-0.17 0.71,-0.32l0.27,-0.33c0.24,-0.16 1.08,-0.64 1.25,-0.76a3.7,3.7 0 0 1 0.81,-0.33l0.05,-0.08l0.16,0l0.58,0.09a2,2 0 0 1 0.4,0.13a3.3,3.3 0 0 0 0.51,0.06a5.46,5.46 0 0 1 4.35,9.83a0.22,0.22 0 0 0 0,0.14l0.67,2.77a0.3,0.3 0 0 0 0.1,0a6,6 0 0 0 0.76,-0.1l0.25,0l6.46,4.29l2.12,1.41a9,9 0 0 0 1,0.71c0.24,0.17 3.18,2.14 3.53,2.39s1.21,0.85 1.41,0.93c0.41,0.24 2.28,1.47 2.83,1.84c0.13,0.13 0.25,0.26 0.38,0.38a9,9 0 0 1 1.47,1a7.4,7.4 0 0 0 2.88,-0.54a7,7 0 0 0 0.6,-0.71c0.31,-0.31 0.71,-0.44 0.76,-1c-0.1,-0.08 -0.07,-0.11 -0.22,-0.16a0.47,0.47 0 0 0 -0.27,-0.06a3.29,3.29 0 0 1 -4.38,0.84m-3.26,-15a2,2 0 0 0 -0.92,1c0,0.14 0,0.16 -0.1,0.4a0.7,0.7 0 0 1 -0.09,0.19a5.7,5.7 0 0 0 0.09,2.27a4.4,4.4 0 0 0 0.55,0.81a0.5,0.5 0 0 0 0.33,0.1a4.7,4.7 0 0 1 -0.22,-1.16l0,-0.06a1.65,1.65 0 0 1 0.72,-1.63c0.86,-0.43 2.17,0.48 2.92,2a3.73,3.73 0 0 1 0.33,2.9c-0.07,0.37 -0.15,0.67 -0.15,0.67l0.12,0.11s0.34,0 0.47,-0.06a2.4,2.4 0 0 0 0.66,-0.81a2,2 0 0 0 0.14,-0.48a0.2,0.2 0 0 1 0,0.06c0,0.09 0.11,0.2 0.1,0.25c-0.17,0.43 -0.49,1.31 -1.06,1.56a2.06,2.06 0 0 1 -1.31,0.21l-0.19,0c-0.07,0 -0.15,0.06 -0.1,0.1s0.21,0.06 0.22,0.17a0.42,0.42 0 0 0 0.1,0.27l0.27,0.19l0.4,0.09l0.07,0a8,8 0 0 1 0.95,-0.15l0.17,0l0.24,-0.16a3.5,3.5 0 0 0 0.42,-0.91a6,6 0 0 0 0.08,-1.23a1.2,1.2 0 0 0 0.35,0a7.44,7.44 0 0 0 -0.81,-3.52a9,9 0 0 0 -0.46,-0.83l-0.12,-0.18l-0.06,-0.09l-0.2,-0.28c-1.16,-1.49 -2.77,-2.33 -3.91,-1.78l0,-0.02z" id="svg_4"/>
 </g>
</svg>