<?xml version="1.0" encoding="UTF-8" standalone="no"?>
<!-- Created with Inkscape (http://www.inkscape.org/) -->

<svg
   xmlns:dc="http://purl.org/dc/elements/1.1/"
   xmlns:cc="http://creativecommons.org/ns#"
   xmlns:rdf="http://www.w3.org/1999/02/22-rdf-syntax-ns#"
   xmlns:svg="http://www.w3.org/2000/svg"
   xmlns="http://www.w3.org/2000/svg"
   xmlns:sodipodi="http://sodipodi.sourceforge.net/DTD/sodipodi-0.dtd"
   xmlns:inkscape="http://www.inkscape.org/namespaces/inkscape"
   version="1.1"
   id="svg2"
   xml:space="preserve"
   width="170.49484"
   height="185.38641"
   viewBox="0 0 170.49484 185.38642"
   sodipodi:docname="Paradox Interactive.svg"
   inkscape:version="0.92.1 r15371"><metadata
     id="metadata8"><rdf:RDF><cc:Work
         rdf:about=""><dc:format>image/svg+xml</dc:format><dc:type
           rdf:resource="http://purl.org/dc/dcmitype/StillImage" /><dc:title></dc:title></cc:Work></rdf:RDF></metadata><defs
     id="defs6"><clipPath
       clipPathUnits="userSpaceOnUse"
       id="clipPath18"><path
         d="M 0,34.596 H 33.601 V 0 H 0 Z"
         id="path16"
         inkscape:connector-curvature="0" /></clipPath></defs><sodipodi:namedview
     pagecolor="#ffffff"
     bordercolor="#666666"
     borderopacity="1"
     objecttolerance="10"
     gridtolerance="10"
     guidetolerance="10"
     inkscape:pageopacity="0"
     inkscape:pageshadow="2"
     inkscape:window-width="1920"
     inkscape:window-height="1017"
     id="namedview4"
     showgrid="false"
     fit-margin-top="0"
     fit-margin-left="0"
     fit-margin-right="0"
     fit-margin-bottom="0"
     inkscape:zoom="2"
     inkscape:cx="66.889146"
     inkscape:cy="39.436975"
     inkscape:window-x="-8"
     inkscape:window-y="-8"
     inkscape:window-maximized="1"
     inkscape:current-layer="g10" /><g
     id="g10"
     inkscape:groupmode="layer"
     inkscape:label="Paradox Interactive"
     transform="matrix(1.3333333,0,0,-1.3333333,128.07217,185.38641)"><g
       id="g12"
       transform="matrix(4.0189562,0,0,4.0189562,-96.054128,0)"><g
         id="g14"
         clip-path="url(#clipPath18)"><path
           d="M 0.031,1.484 H 0.423 V 0.041 H 0.031 Z m 3.461,0 h 0.38 V 0.041 H 3.445 L 2.659,1.047 H 2.655 V 0.041 H 2.275 V 1.484 H 2.73 L 3.488,0.477 H 3.492 Z M 6.12,1.209 H 5.584 V 1.484 H 7.048 V 1.209 H 6.512 V 0.041 H 6.12 Z m 2.64,0.275 h 1.348 V 1.209 H 9.152 V 0.91 H 10.06 V 0.647 H 9.152 V 0.316 h 0.964 V 0.041 H 8.76 Z m 3.15,0 h 1.049 c 0.4,0 0.467,-0.244 0.467,-0.392 0,-0.176 -0.071,-0.289 -0.235,-0.348 V 0.74 c 0.172,-0.026 0.198,-0.244 0.198,-0.386 0,-0.071 0.006,-0.24 0.075,-0.313 h -0.428 c -0.037,0.066 -0.039,0.125 -0.039,0.277 0,0.202 -0.087,0.252 -0.208,0.252 H 12.302 V 0.041 H 11.91 Z m 0.392,-0.639 h 0.519 c 0.087,0 0.188,0.049 0.188,0.184 0,0.144 -0.113,0.18 -0.208,0.18 H 12.302 Z M 16.246,0.338 H 15.583 L 15.465,0.041 h -0.422 l 0.635,1.443 h 0.473 L 16.786,0.041 H 16.363 Z M 15.914,1.173 15.688,0.601 h 0.453 z m 3.777,-0.235 c -0.037,0.208 -0.209,0.312 -0.413,0.312 -0.372,0 -0.451,-0.292 -0.451,-0.488 0,-0.196 0.079,-0.487 0.451,-0.487 0.19,0 0.374,0.091 0.413,0.32 h 0.426 C 20.069,0.174 19.723,0 19.264,0 c -0.526,0 -0.853,0.227 -0.853,0.762 0,0.536 0.327,0.763 0.853,0.763 0.348,0 0.791,-0.089 0.849,-0.587 z m 2.587,0.271 h -0.536 v 0.275 h 1.464 V 1.209 H 22.67 V 0.041 h -0.392 z m 2.64,0.275 H 25.31 V 0.041 h -0.392 z m 2.062,0 h 0.431 l 0.418,-1.1 0.419,1.1 h 0.43 l -0.64,-1.443 h -0.417 z m 3.368,0 h 1.349 V 1.209 H 30.74 V 0.91 h 0.908 V 0.647 H 30.74 V 0.316 h 0.965 V 0.041 H 30.348 Z M 0,5.913 H 1.317 V 5.559 h 0.011 c 0.245,0.283 0.62,0.436 1.224,0.436 0.882,0 1.693,-0.485 1.693,-1.59 C 4.245,3.3 3.434,2.816 2.552,2.816 1.997,2.816 1.605,2.952 1.371,3.235 H 1.36 V 1.869 H 0 Z M 2.111,3.731 c 0.49,0 0.741,0.293 0.741,0.674 C 2.852,4.797 2.634,5.08 2.106,5.08 1.583,5.08 1.36,4.83 1.36,4.405 1.36,3.986 1.583,3.731 2.111,3.731 m 2.722,1.278 c 0.081,0.409 0.25,0.659 0.587,0.817 0.333,0.152 0.828,0.207 1.546,0.207 1.388,0 1.938,-0.31 1.938,-1.198 V 3.398 c 0,-0.228 0.06,-0.364 0.125,-0.462 H 7.636 C 7.608,3.023 7.592,3.121 7.587,3.23 7.282,2.947 6.819,2.816 6.095,2.816 c -0.914,0 -1.491,0.245 -1.491,1.007 0,0.544 0.387,0.893 1.393,0.936 L 7.146,4.814 C 7.418,4.83 7.51,4.895 7.51,5.059 7.51,5.255 7.266,5.347 6.879,5.347 6.569,5.347 6.259,5.298 6.193,5.009 Z M 7.543,4.291 C 7.315,4.242 6.928,4.209 6.444,4.166 6.193,4.144 6.074,4.062 6.074,3.872 c 0,-0.207 0.168,-0.337 0.506,-0.337 0.457,0 0.963,0.114 0.963,0.625 z m 2.079,1.622 h 1.317 V 5.342 h 0.011 c 0.354,0.462 0.8,0.653 1.268,0.653 0.147,0 0.3,-0.011 0.447,-0.033 V 4.743 c -0.24,0.06 -0.441,0.109 -0.681,0.109 -0.484,0 -1.001,-0.158 -1.001,-0.8 V 2.936 H 9.622 Z m 3.527,-0.904 c 0.082,0.409 0.25,0.659 0.588,0.817 0.332,0.152 0.827,0.207 1.546,0.207 1.387,0 1.937,-0.31 1.937,-1.198 V 3.398 c 0,-0.228 0.06,-0.364 0.125,-0.462 H 15.952 C 15.925,3.023 15.908,3.121 15.903,3.23 15.598,2.947 15.136,2.816 14.412,2.816 c -0.915,0 -1.492,0.245 -1.492,1.007 0,0.544 0.387,0.893 1.394,0.936 l 1.148,0.055 c 0.272,0.016 0.365,0.081 0.365,0.245 0,0.196 -0.245,0.288 -0.632,0.288 -0.31,0 -0.62,-0.049 -0.685,-0.338 z m 2.71,-0.718 C 15.631,4.242 15.244,4.209 14.76,4.166 14.51,4.144 14.39,4.062 14.39,3.872 c 0,-0.207 0.169,-0.337 0.506,-0.337 0.457,0 0.963,0.114 0.963,0.625 z m 4.844,-1.039 h -0.01 C 20.448,2.969 20.072,2.816 19.468,2.816 c -0.882,0 -1.693,0.484 -1.693,1.589 0,1.105 0.811,1.59 1.693,1.59 0.555,0 0.947,-0.136 1.181,-0.419 h 0.011 v 1.382 h 1.36 V 2.936 H 20.703 Z M 19.909,5.08 c -0.49,0 -0.74,-0.294 -0.74,-0.675 0,-0.391 0.217,-0.674 0.745,-0.674 0.523,0 0.746,0.25 0.746,0.674 0,0.419 -0.223,0.675 -0.751,0.675 m 4.882,0.953 c 1.535,0 2.204,-0.512 2.204,-1.606 0,-1.099 -0.669,-1.611 -2.204,-1.611 -1.535,0 -2.205,0.512 -2.205,1.611 0,1.094 0.67,1.606 2.205,1.606 m 0,-2.335 c 0.549,0 0.778,0.25 0.778,0.729 0,0.468 -0.229,0.724 -0.778,0.724 -0.545,0 -0.779,-0.256 -0.779,-0.724 0,-0.479 0.234,-0.729 0.779,-0.729 m 2.389,-0.762 1.372,1.557 -1.258,1.42 h 1.666 l 0.539,-0.8 0.538,0.8 h 1.666 L 30.424,4.493 31.817,2.936 H 30.086 L 29.499,3.779 28.911,2.936 Z m 0.76,17.701 c -0.161,0.788 0.659,1.471 0.271,2.277 -0.385,0.794 -2.26,0.755 -2.289,1.669 -0.038,1.068 1.515,0.524 2.166,0.503 0,1.711 -0.673,3.172 -2.513,2.017 -0.309,0 -0.73,0.063 -0.877,0.338 -0.55,1.011 1.133,1.227 1.179,2.044 0.025,0.473 -0.553,0.773 -0.732,1.157 -0.123,0.257 -0.015,0.584 -0.015,0.857 0,0.114 -0.133,0.118 -0.223,0.141 -0.347,0.089 -0.67,-0.11 -1.027,-0.034 -0.396,0.086 -0.613,0.448 -0.966,0.612 0,-0.146 -0.252,-0.336 -0.335,-0.455 -0.26,-0.36 -1.192,-1.634 -1.76,-1.081 -0.223,0.217 -0.186,0.6 -0.141,0.892 0.327,2.207 -0.479,2.447 -2.418,2.756 -0.471,0.078 -1.672,0.362 -2.221,0.194 0,-0.379 0.479,-3.02 -0.37,-2.882 -1.009,0 -0.457,2.622 -1.921,2.954 -0.241,-0.088 -0.559,-0.125 -0.716,-0.355 -0.208,-0.303 0.205,-1.226 0.296,-1.583 0.11,-0.451 0.087,-1.055 -0.098,-1.448 v -0.072 c -1.656,0 -1.487,3.67 -4.064,1.873 0,-0.982 2.338,-2.225 1.535,-3.303 -0.137,-0.18 -0.365,-0.332 -0.592,-0.363 -1.254,-0.15 -1.751,2.556 -3.152,2.316 -0.229,-0.039 -0.432,-0.218 -0.53,-0.414 -0.33,-0.639 1.221,-1.571 1.446,-2.207 0.123,-0.347 0.015,-0.665 -0.038,-1 -1.181,0 -2.569,1.693 -3.668,0.618 C 3.993,28.492 3.805,28.26 3.873,28.002 3.986,27.553 4.785,27.629 5.028,27.207 5.037,27.189 5.045,27.173 5.054,27.154 5.47,26.209 4.513,25.511 4.5,24.653 4.49,24.226 4.822,23.985 4.686,23.515 4.216,21.914 2.696,23.699 1.973,23.015 1.321,22.401 2.063,21.125 2.111,20.402 2.141,19.93 1.884,19.575 1.855,19.113 1.825,18.692 2.128,18.377 2.232,18.004 2.371,17.493 2.224,16.927 2.507,16.485 3.324,15.22 4.717,18.658 5.336,17.21 5.836,16.037 3.302,16.101 3.24,15.212 3.176,14.328 4.717,13.532 5.302,12.962 5.816,12.461 6.223,11.819 6.292,11.099 6.358,10.38 6.022,9.651 5.838,9.02 c 0.261,0 0.451,-0.113 0.726,-0.034 1.285,0.381 2.039,2.435 1.828,3.704 -0.181,1.069 -0.766,1.986 -0.837,3.104 -0.071,1.1 1.002,2.948 -0.026,3.735 -0.045,0.027 -0.092,0.055 -0.138,0.081 0,-0.115 -0.246,-0.153 -0.371,-0.157 -0.225,-0.007 -0.404,0.081 -0.557,0.199 -0.222,0.175 -0.352,0.442 -0.174,0.7 0.248,0.362 0.949,0.292 1.032,0.782 0.179,1.083 -2.09,1.295 -0.718,2.631 0.255,0.249 0.61,0.446 1.004,0.414 0.637,-0.05 2.171,-0.504 2.084,-1.32 -0.041,-0.369 -0.352,-0.716 -0.218,-1.13 0.138,-0.43 0.768,-0.38 0.934,-0.785 0.225,-0.55 -0.233,-0.957 -0.189,-1.468 0.01,-0.129 0.067,-0.176 0.165,-0.253 0.194,-0.15 0.566,-0.202 0.68,-0.452 0.286,-0.637 -0.485,-1.411 0.542,-1.754 0,0.452 -0.103,1.062 0.295,1.297 0,-0.109 0.22,-0.26 0.286,-0.365 0.324,-0.506 0.459,-0.981 1.118,-1.149 0.024,0.958 -0.518,1.777 -0.518,1.803 0.474,0 0.763,-0.625 1.299,-0.482 0.491,0.132 0.056,0.677 -0.058,0.906 -0.325,0.654 0.142,1.184 -0.056,1.788 -0.209,0.639 -1.92,1.091 -2.445,1.606 -0.177,0.17 -0.363,0.451 -0.276,0.718 0.322,1.001 1.504,0.404 2.329,0.64 0.386,0.114 0.678,0.381 0.954,0.683 0.379,0.421 0.644,1.108 0.407,1.68 -0.141,0.341 -0.388,0.598 -0.328,1.026 0.249,1.801 3.164,1.701 4.435,1.047 0.649,-0.333 1.264,-1.096 0.922,-1.875 -0.305,-0.684 -1.128,-0.286 -1.709,-0.54 -0.513,-0.221 -1.184,-1.254 -1.355,-1.742 -0.258,-0.733 0.464,-1.286 0.514,-1.998 0.098,-1.557 -0.634,-2.988 -0.943,-4.392 -0.059,-0.258 0.169,-0.606 0.032,-0.842 -0.224,-0.379 -0.69,-0.239 -1.064,-0.378 -0.29,-0.108 -0.421,-0.334 -0.675,-0.493 -0.544,-0.336 -1.171,-0.498 -1.242,-1.244 0.343,0 0.595,0.185 0.96,0.217 0.052,0.005 0.073,-0.028 0.074,-0.071 -10e-4,-0.026 -0.007,-0.048 -0.009,-0.071 -0.085,-0.648 -0.596,-1.197 -0.286,-1.874 0.459,0 0.567,1.07 1.33,0.791 0.09,0 0.079,-0.005 0.102,-0.083 0.156,-0.498 0.219,-0.925 0.488,-1.358 0.074,0 0.311,0.067 0.303,0.258 -0.02,0.459 -0.092,1.153 0.063,1.545 0.224,0.582 0.626,0.507 0.522,1.295 0.118,0 0.257,0.203 0.386,0.246 0.933,0.326 1.088,0.867 2.273,0.829 0.286,-0.007 0.576,-0.022 0.815,-0.139 0.208,0 0.129,0.322 0.055,0.573 -0.416,1.377 -0.941,2.739 -0.941,4.326 h 0.221 c 0,-0.178 0.703,-1.131 0.838,-1.353 0.176,-0.281 0.747,-1.591 1.252,-1.304 0.236,0.138 0.377,1.783 0.515,2.146 0.501,1.348 1.916,1.645 2.747,0.34 0.788,-1.233 0.302,-3.836 -0.706,-4.791 -0.397,-0.368 -0.957,-0.37 -1.337,-0.717 -0.397,-0.361 -0.041,-1.041 -0.106,-1.517 -0.062,-0.44 -0.354,-0.855 -0.678,-1.172 C 21.683,12.123 20.723,11.806 19.984,11.15 19.67,10.874 19.601,10.415 19.218,10.245 18.841,10.082 18.377,10.291 17.984,10.176 17.698,9.995 17.41,9.815 17.12,9.635 16.588,9.358 15.731,8.89 15.447,8.805 c 0,-1.131 2.703,-0.528 3.259,-0.228 0.395,0.213 0.512,0.732 0.903,0.9 0.416,0.182 0.781,-0.243 1.23,-0.089 0.416,0.15 0.806,0.486 1.174,0.731 0.708,0.481 1.471,0.886 2.131,1.451 0.224,0.196 0.576,0.464 0.672,0.731 0.171,0.477 -0.584,1.654 0.754,1.46 1.038,-0.139 2.071,1.947 2.27,2.687 0.116,0.57 0.229,1.145 0.343,1.717 0.145,0.344 0.285,0.688 0.43,1.034 0.209,0.85 -0.549,0.822 -0.673,1.438 M 4.434,18.453 c -0.831,-0.174 -1.413,0.78 -1.039,1.451 0.157,0.285 0.399,0.413 0.67,0.572 0.328,-0.029 0.61,-0.06 0.85,-0.258 0.693,-0.575 0.355,-1.587 -0.481,-1.765 m 5.545,6.056 c -0.075,-0.037 -0.218,0.032 -0.301,0.067 -1.056,0.447 -0.62,1.129 -0.216,1.878 0.81,-0.322 0.99,-1.714 0.517,-1.945 m 1.477,-3.097 c 0.976,-0.477 1.313,-1.305 1.28,-1.725 -0.01,-0.135 -0.092,-0.25 -0.092,-0.25 0,0 -0.251,-0.088 -0.527,0.022 -0.784,0.315 -0.661,1.153 -0.661,1.953 m 7.775,-3.45 c -0.041,-0.338 -0.165,-0.486 -0.384,-0.729 -0.378,0 -0.729,0.182 -0.841,0.52 -0.104,0.305 -0.009,0.687 0.017,0.994 0.085,1.091 0.168,2.331 0.529,3.313 0.363,-0.804 0.236,-1.745 0.414,-2.655 0.09,-0.463 0.326,-0.918 0.265,-1.443 m 5.307,4.746 c -0.497,0 -0.98,-0.058 -1.47,0.039 -1.85,0.367 -0.256,2.443 0.14,3.276 0.754,-0.685 1.59,-2.229 1.33,-3.315"
           style="fill:#100f0d;fill-opacity:1;fill-rule:nonzero;stroke:none"
           id="path20"
           inkscape:connector-curvature="0"
           sodipodi:nodetypes="cccccccccccccccccccccccccccccccccccccccccssccsccsscccccsssccccccccccccccccsssccssscccccccccccccccccccccccccccccccccccccccccsssccccccssscccssscccssccssccccssscccccsccsscccccssscccssccssccccssscccsssccccccccsssccsssccsssccccccccccccccccccccccsccccccccccccccccccccccccccccccccccccccccccccccccccccccccccccccccccccccccccccccccccccccccccccccccccccccccccccccccccccccccccccccccccccccccccccccc" /></g></g></g></svg>