<svg xmlns="http://www.w3.org/2000/svg" xmlns:svg="http://www.w3.org/2000/svg" viewBox="0 0 63.31 12.83">
 <g class="layer">
  <title>Layer 1</title>
  <path d="m12.13,11.72c0,0.3 -0.12,0.58 -0.33,0.78c-0.2,0.21 -0.47,0.33 -0.78,0.33l-9.9,0c-0.61,0 -1.1,-0.49 -1.11,-1.09l-0.01,0l0,-9.68c0.01,-0.31 0.13,-0.59 0.33,-0.79s0.48,-0.32 0.79,-0.32l9.9,0c0.61,0 1.11,0.5 1.11,1.11m-2.62,4.83c0,-0.61 -0.5,-1.11 -1.11,-1.11s-1.11,0.5 -1.11,1.11s0.5,1.11 1.11,1.11s1.11,-0.5 1.11,-1.11m-3.36,-3.36c0,-0.61 -0.5,-1.11 -1.11,-1.11s-1.11,0.5 -1.11,1.11c0,0.62 0.5,1.11 1.11,1.11s1.11,-0.49 1.11,-1.11m0,3.36c0,-0.61 -0.5,-1.11 -1.11,-1.11s-1.11,0.5 -1.11,1.11s0.5,1.11 1.11,1.11s1.11,-0.5 1.11,-1.11m0,3.36c0,-0.62 -0.5,-1.11 -1.11,-1.11s-1.11,0.49 -1.11,1.11c0,0.61 0.5,1.11 1.11,1.11s1.11,-0.5 1.11,-1.11" fill="#2c2c2c" id="svg_9"/>
  <path d="m16.83,9.88l0,0.53l-1.52,0l0,0.62l1.4,0l0,0.49l-1.4,0l0,0.7l1.55,0l0,0.54l-2.18,0l0,-2.88l2.15,0zm2.22,0l1.2,1.93l0.01,0l0,-1.93l0.59,0l0,2.88l-0.63,0l-1.2,-1.93l-0.01,0l0,1.93l-0.59,0l0,-2.88l0.63,0zm3.25,0.54l0,-0.53l2.36,0l0,0.53l-0.87,0l0,2.34l-0.63,0l0,-2.34l-0.86,0zm5.97,-0.54l0,0.53l-1.52,0l0,0.62l1.4,0l0,0.49l-1.4,0l0,0.7l1.55,0l0,0.54l-2.18,0l0,-2.88l2.15,0z" fill="#ec6324" id="svg_10"/>
  <g clip-path="url(#d)" id="svg_11">
   <path d="m31.41,9.88c0.13,0 0.24,0.02 0.35,0.06c0.1,0.04 0.19,0.1 0.27,0.17c0.07,0.08 0.12,0.16 0.16,0.26a0.7,0.7 0 0 1 0.06,0.3a0.8,0.8 0 0 1 -0.11,0.44a0.6,0.6 0 0 1 -0.34,0.28l0,0.01c0.08,0.02 0.14,0.05 0.19,0.1s0.09,0.1 0.13,0.16c0.02,0.06 0.05,0.12 0.06,0.2c0.02,0.07 0.03,0.14 0.04,0.21l0,0.17c0.01,0.06 0.01,0.12 0.01,0.19c0.01,0.06 0.03,0.12 0.04,0.18c0.01,0.05 0.04,0.1 0.07,0.15l-0.64,0c-0.03,-0.1 -0.05,-0.2 -0.06,-0.33s-0.02,-0.25 -0.04,-0.37a0.6,0.6 0 0 0 -0.13,-0.32c-0.07,-0.07 -0.19,-0.11 -0.35,-0.11l-0.63,0l0,1.13l-0.63,0l0,-2.88l1.55,0zm-0.23,1.3c0.15,0 0.26,-0.03 0.33,-0.1c0.07,-0.06 0.11,-0.17 0.11,-0.31s-0.04,-0.24 -0.11,-0.31q-0.11,-0.09 -0.33,-0.09l-0.69,0l0,0.81l0.69,0z" fill="#ec6324" id="svg_12"/>
  </g>
  <path d="m33.59,10.42l0,-0.53l2.36,0l0,0.53l-0.87,0l0,2.34l-0.63,0l0,-2.34l-0.86,0zm4.88,-0.54l1.08,2.88l-0.66,0l-0.22,-0.65l-1.07,0l-0.23,0.65l-0.64,0l1.09,-2.88l0.65,0zm0.04,1.76l-0.37,-1.05l-0.38,1.05l0.75,0zm2.41,1.12l0.63,0l0,-2.88l-0.63,0l0,2.88zm2.94,-2.88l1.2,1.93l0.01,0l0,-1.93l0.59,0l0,2.88l-0.63,0l-1.2,-1.93l-0.01,0l0,1.93l-0.59,0l0,-2.88l0.63,0zm4.37,0l0.67,1.98l0.01,0l0.64,-1.98l0.89,0l0,2.88l-0.59,0l0,-2.04l-0.01,0l-0.71,2.04l-0.48,0l-0.71,-2.02l-0.01,0l0,2.02l-0.59,0l0,-2.88l0.89,0zm6.05,0l0,0.53l-1.52,0l0,0.62l1.4,0l0,0.49l-1.4,0l0,0.7l1.56,0l0,0.54l-2.19,0l0,-2.88l2.15,0zm2.34,0l1.2,1.93l0.01,0l0,-1.93l0.59,0l0,2.88l-0.64,0l-1.19,-1.93l-0.01,0l0,1.93l-0.59,0l0,-2.88l0.63,0zm3.3,0.54l0,-0.53l2.36,0l0,0.53l-0.86,0l0,2.34l-0.64,0l0,-2.34l-0.86,0z" fill="#ec6324" id="svg_13"/>
  <g clip-path="url(#e)" fill="#171717" id="svg_14">
   <path d="m23.02,5.79c0.26,0.25 0.64,0.38 1.13,0.38c0.35,0 0.66,-0.09 0.91,-0.26c0.26,-0.18 0.41,-0.37 0.47,-0.56l1.54,0c-0.25,0.76 -0.63,1.31 -1.13,1.63c-0.51,0.33 -1.13,0.5 -1.85,0.5q-0.75,0 -1.35,-0.24a2.75,2.75 0 0 1 -1.03,-0.69c-0.27,-0.29 -0.49,-0.64 -0.64,-1.05s-0.23,-0.87 -0.23,-1.36c0,-0.48 0.08,-0.92 0.24,-1.33c0.15,-0.41 0.37,-0.76 0.66,-1.06s0.63,-0.54 1.03,-0.71c0.39,-0.17 0.83,-0.26 1.32,-0.26c0.54,0 1.01,0.11 1.41,0.32q0.62,0.31 0.99,0.84c0.26,0.35 0.45,0.75 0.56,1.21c0.12,0.45 0.17,1.03 0.14,1.52l-4.59,0c0.02,0.57 0.16,0.87 0.42,1.12m1.98,-3.35c-0.22,-0.23 -0.53,-0.34 -0.96,-0.34c-0.28,0 -0.51,0.05 -0.69,0.14a1.24,1.24 0 0 0 -0.68,0.79c-0.05,0.16 -0.09,0.39 -0.08,0.53l2.84,0c-0.04,-0.45 -0.23,-0.89 -0.43,-1.12m4.19,3.29a0.96,0.96 0 0 0 0.3,0.33c0.13,0.09 0.27,0.15 0.43,0.19a2,2 0 0 0 0.88,0.02c0.14,-0.03 0.26,-0.07 0.37,-0.13s0.21,-0.15 0.28,-0.25s0.11,-0.23 0.11,-0.39c0,-0.26 -0.18,-0.46 -0.52,-0.59c-0.35,-0.13 -0.84,-0.26 -1.46,-0.39c-0.26,-0.06 -0.5,-0.13 -0.75,-0.2c-0.24,-0.08 -0.45,-0.19 -0.64,-0.31c-0.19,-0.13 -0.34,-0.29 -0.46,-0.48c-0.11,-0.19 -0.17,-0.43 -0.17,-0.71c0,-0.41 0.08,-0.74 0.24,-1.01c0.16,-0.26 0.37,-0.47 0.64,-0.62c0.26,-0.15 0.55,-0.26 0.88,-0.32s0.67,-0.09 1.01,-0.09s0.68,0.03 1,0.1q0.5,0.09 0.87,0.33c0.38,0.24 0.46,0.36 0.63,0.62s0.27,0.59 0.3,0.98l-1.66,0c-0.02,-0.34 -0.15,-0.57 -0.38,-0.69c-0.23,-0.11 -0.5,-0.17 -0.81,-0.17c-0.1,0 -0.21,0 -0.32,0.02a1,1 0 0 0 -0.31,0.08c-0.1,0.04 -0.18,0.1 -0.24,0.17a0.47,0.47 0 0 0 -0.1,0.32c0,0.15 0.05,0.28 0.17,0.38q0.18,0.15 0.45,0.24c0.27,0.09 0.39,0.12 0.63,0.17s0.48,0.1 0.73,0.16c0.25,0.05 0.5,0.12 0.74,0.2c0.25,0.09 0.46,0.2 0.65,0.33c0.19,0.14 0.34,0.3 0.45,0.51c0.12,0.2 0.18,0.45 0.18,0.74c0,0.42 -0.09,0.77 -0.26,1.05c-0.16,0.29 -0.38,0.51 -0.66,0.68c-0.26,0.17 -0.57,0.3 -0.92,0.37s-0.71,0.1 -1.07,0.1c-0.37,0 -0.73,-0.03 -1.08,-0.11c-0.35,-0.07 -0.67,-0.2 -0.94,-0.37c-0.28,-0.17 -0.5,-0.4 -0.68,-0.68c-0.17,-0.28 -0.27,-0.64 -0.29,-1.07l1.66,0c0,0.19 0.04,0.35 0.12,0.49m6.17,-4.78l0,0.81l0.03,0q0.31,-0.51 0.81,-0.75c0.32,-0.15 0.69,-0.23 1.08,-0.23c0.5,0 0.93,0.09 1.29,0.28q0.54,0.29 0.9,0.75c0.36,0.47 0.41,0.68 0.53,1.09c0.11,0.42 0.17,0.85 0.17,1.3c0,0.42 -0.06,0.83 -0.17,1.23a3.1,3.1 0 0 1 -0.53,1.04c-0.23,0.31 -0.52,0.55 -0.87,0.73s-0.75,0.27 -1.22,0.27c-0.39,0 -0.76,-0.08 -1.09,-0.24s-0.6,-0.39 -0.82,-0.71l-0.02,0l0,2.43l-1.75,0l0,-8l1.66,0zm2.27,5.05c0.19,-0.12 0.35,-0.27 0.47,-0.45c0.12,-0.19 0.2,-0.4 0.25,-0.65s0.07,-0.5 0.07,-0.75c0,-0.26 -0.02,-0.5 -0.08,-0.75c-0.05,-0.25 -0.14,-0.47 -0.26,-0.66s-0.28,-0.35 -0.47,-0.47c-0.2,-0.11 -0.43,-0.18 -0.71,-0.18c-0.29,0 -0.53,0.07 -0.72,0.18c-0.19,0.12 -0.35,0.28 -0.47,0.46c-0.12,0.19 -0.2,0.41 -0.25,0.66c-0.05,0.24 -0.07,0.5 -0.07,0.76c0,0.25 0.02,0.5 0.08,0.75c0.05,0.25 0.13,0.46 0.25,0.65q0.18,0.27 0.48,0.45c0.19,0.11 0.43,0.17 0.71,0.17c0.29,0 0.53,-0.06 0.72,-0.17m3.2,-4.11c0.18,-0.27 0.41,-0.49 0.69,-0.65c0.28,-0.17 0.59,-0.28 0.94,-0.35s0.7,-0.11 1.05,-0.11c0.32,0 0.65,0.02 0.97,0.07c0.33,0.04 0.63,0.13 0.9,0.26a2,2 0 0 1 0.67,0.55c0.17,0.24 0.26,0.55 0.26,0.93l0,3.31c0,0.29 0.01,0.56 0.04,0.82c0.04,0.27 0.09,0.46 0.18,0.59l-1.78,0c-0.03,-0.09 -0.05,-0.19 -0.07,-0.3c-0.03,-0.1 -0.04,-0.2 -0.05,-0.31c-0.28,0.29 -0.61,0.49 -0.98,0.6c-0.38,0.12 -0.76,0.18 -1.16,0.18c-0.3,0 -0.58,-0.04 -0.85,-0.12c-0.26,-0.07 -0.49,-0.18 -0.69,-0.34c-0.19,-0.16 -0.35,-0.35 -0.46,-0.59s-0.16,-0.52 -0.16,-0.85c0,-0.36 0.06,-0.66 0.19,-0.89c0.12,-0.24 0.29,-0.42 0.49,-0.56s0.43,-0.24 0.69,-0.32c0.26,-0.06 0.51,-0.12 0.78,-0.16c0.26,-0.04 0.52,-0.07 0.77,-0.1c0.26,-0.02 0.48,-0.06 0.68,-0.11s0.35,-0.12 0.47,-0.22c0.11,-0.09 0.17,-0.23 0.16,-0.41q0,-0.29 -0.09,-0.45a0.67,0.67 0 0 0 -0.25,-0.25a0.8,0.8 0 0 0 -0.36,-0.13c-0.13,-0.02 -0.28,-0.03 -0.43,-0.03c-0.35,0 -0.62,0.07 -0.82,0.22c-0.19,0.15 -0.31,0.4 -0.34,0.74l-1.75,0c0.03,-0.41 0.13,-0.75 0.31,-1.02m3.45,2.47q-0.17,0.04 -0.36,0.09q-0.18,0.03 -0.39,0.06c-0.15,0.02 -0.28,0.04 -0.42,0.06s-0.26,0.06 -0.39,0.1s-0.24,0.1 -0.33,0.17a0.64,0.64 0 0 0 -0.23,0.26a0.83,0.83 0 0 0 -0.09,0.41q0,0.22 0.09,0.39c0.05,0.11 0.13,0.19 0.23,0.25s0.22,0.11 0.35,0.13c0.13,0.03 0.26,0.04 0.4,0.04c0.35,0 0.61,-0.06 0.8,-0.17q0.28,-0.18 0.42,-0.42c0.09,-0.16 0.15,-0.32 0.17,-0.48c0.02,-0.17 0.03,-0.3 0.03,-0.4l0,-0.65a0.9,0.9 0 0 1 -0.28,0.16" fill="#2c2c2c" id="svg_15"/>
  </g>
  <path d="m52.26,7.31l-1.13,-4.27l-0.03,0l-1.08,4.27l-1.81,0l-2.02,-6.36l1.85,0l1.17,4.32l0.02,0l1.06,-4.32l1.7,0l1.08,4.31l0.03,0l1.17,-4.31l1.79,0l-2,6.36l-1.8,0z" fill="#2c2c2c" id="svg_16"/>
  <g clip-path="url(#f)" fill="#171717" id="svg_17">
   <path d="m57.97,0.95l0,0.89l0.04,0c0.22,-0.37 0.51,-0.64 0.86,-0.81s0.71,-0.25 1.08,-0.25c0.47,0 0.85,0.06 1.15,0.19s0.53,0.3 0.71,0.53c0.17,0.22 0.29,0.5 0.36,0.82c0.07,0.33 0.1,0.69 0.1,1.08l0,3.91l-1.74,0l0,-3.59c0,-0.53 -0.08,-0.92 -0.25,-1.18c-0.16,-0.25 -0.45,-0.38 -0.87,-0.38c-0.48,0 -0.82,0.14 -1.03,0.42c-0.22,0.28 -0.32,0.75 -0.32,1.4l0,3.33l-1.75,0l0,-6.36l1.66,0zm-39.32,-0.01l-3.97,0l0,6.39l1.63,0l0,-2.52l1.73,0q0.45,0 0.63,0.18c0.12,0.13 0.2,0.33 0.24,0.62c0.04,0.23 0.06,0.62 0.08,0.89c0.02,0.28 0.07,0.53 0.14,0.74l0.04,0.09l1.74,0l-0.18,-0.23a0.7,0.7 0 0 1 -0.11,-0.27c-0.03,-0.11 -0.06,-0.24 -0.07,-0.36l-0.03,-0.39l0,-0.03c0,-0.12 -0.01,-0.36 -0.01,-0.45a7,7 0 0 0 -0.07,-0.49c-0.04,-0.16 -0.09,-0.32 -0.17,-0.46c-0.07,-0.14 -0.17,-0.27 -0.29,-0.37a0.7,0.7 0 0 0 -0.17,-0.12c0.23,-0.14 0.41,-0.31 0.53,-0.52c0.16,-0.29 0.24,-0.56 0.24,-0.87c0,-0.25 -0.04,-0.49 -0.13,-0.71s-0.22,-0.42 -0.39,-0.58c-0.17,-0.17 -0.38,-0.3 -0.62,-0.4c-0.23,-0.09 -0.5,-0.14 -0.79,-0.14m-2.34,1.34l1.86,0c0.27,0 0.47,0.05 0.6,0.16c0.11,0.11 0.17,0.29 0.18,0.49c-0.01,0.21 -0.07,0.36 -0.18,0.46c-0.13,0.11 -0.33,0.17 -0.6,0.17l-1.86,0l0,-1.28z" fill="#2c2c2c" id="svg_18"/>
  </g>
  <path d="m63.1,0l-0.1,0.31l-0.11,-0.31l-0.2,0l0,0.51l0.13,0l0,-0.35l0.12,0.35l0.12,0l0.12,-0.35l0,0.35l0.13,0l0,-0.51l-0.21,0zm-0.92,0l0,0.11l0.14,0l0,0.4l0.14,0l0,-0.4l0.14,0l0,-0.11l-0.42,0z" fill="#2c2c2c" id="svg_19"/>
 </g>
</svg>